<svg width="332" height="152" viewBox="0 0 332 152" fill="none" xmlns="http://www.w3.org/2000/svg">
<path d="M74.69 12.7C74.69 13.82 74.97 14.8467 75.53 15.78C76.09 16.6667 76.37 17.39 76.37 17.95C76.37 18.4633 76.23 18.93 75.95 19.35C75.7167 19.77 75.39 19.98 74.97 19.98C74.1767 19.98 73.5233 19.3033 73.01 17.95C72.4967 16.5967 72.24 15.1733 72.24 13.68C72.24 11.44 73.0567 9.43333 74.69 7.66C76.37 5.88666 78.4933 5 81.06 5C82.7867 5 84.07 5.84 84.91 7.52C85.7967 9.15333 86.24 11.02 86.24 13.12C86.24 15.22 86.17 17.2033 86.03 19.07C85.9367 20.89 85.8433 22.3133 85.75 23.34C85.6567 24.32 85.47 25.9067 85.19 28.1C84.91 30.2467 84.7233 31.74 84.63 32.58C88.3633 32.58 92.2833 30.69 96.39 26.91C96.95 20.19 97.72 14.94 98.7 11.16C99.7267 7.33333 100.753 4.65 101.78 3.11C102.807 1.57 103.903 0.799998 105.07 0.799998C106.283 0.799998 107.263 1.33666 108.01 2.41C108.803 3.48333 109.2 4.76667 109.2 6.26C109.2 11.7667 106.75 17.7167 101.85 24.11C101.57 27.7967 101.43 31.2033 101.43 34.33C101.43 37.41 101.873 40.42 102.76 43.36C103.693 46.2533 104.16 47.8633 104.16 48.19C104.16 48.5633 103.903 48.8433 103.39 49.03C102.877 49.2633 102.317 49.38 101.71 49.38C100.077 49.38 98.7467 48.96 97.72 48.12C97.2067 47.7 96.7867 46.2767 96.46 43.85C96.1333 41.4233 95.97 39.16 95.97 37.06C95.97 34.9133 96.04 32.6033 96.18 30.13C92.0267 33.6767 88.0833 35.52 84.35 35.66C84.3033 36.3133 84.2567 37.41 84.21 38.95C84.1633 40.4433 84.0933 41.5633 84 42.31C83.9067 43.01 83.72 43.8267 83.44 44.76C82.9733 46.4867 81.8533 47.35 80.08 47.35C79.0067 47.35 78.47 46.44 78.47 44.62C78.47 42.7533 78.75 39.5333 79.31 34.96C77.21 34.0733 76.16 32.51 76.16 30.27C76.16 28.6367 76.58 27.26 77.42 26.14C78.26 24.9733 79.2867 24.39 80.5 24.39C80.92 20.0967 81.13 16.7833 81.13 14.45C81.13 10.25 80.4767 8.15 79.17 8.15C76.1833 8.15 74.69 9.66667 74.69 12.7ZM106.96 7.45C106.96 6.75 106.843 6.12 106.61 5.56C106.423 4.95333 106.167 4.65 105.84 4.65C104.533 4.65 103.343 9.71333 102.27 19.84C105.397 15.08 106.96 10.95 106.96 7.45ZM80.29 26.63C79.6367 27.0967 79.31 27.7267 79.31 28.52C79.31 29.3133 79.4967 29.9667 79.87 30.48L80.29 26.63ZM117.026 47.35C114.413 47.35 112.336 46.37 110.796 44.41C109.256 42.4033 108.486 40.14 108.486 37.62C108.486 32.5333 109.56 28.6833 111.706 26.07C113.853 23.4567 116.63 22.15 120.036 22.15C121.623 22.15 122.93 22.5933 123.956 23.48C124.983 24.32 125.496 25.4867 125.496 26.98C125.496 29.78 124.306 32.1367 121.926 34.05C119.593 35.9167 116.723 36.8967 113.316 36.99C113.503 38.81 114.11 40.3967 115.136 41.75C116.21 43.0567 117.446 43.71 118.846 43.71C120.246 43.71 121.506 43.3833 122.626 42.73C123.746 42.0767 124.773 41.1433 125.706 39.93C127.666 37.3633 129.346 34.4467 130.746 31.18C131.12 30.34 131.4 29.7333 131.586 29.36C131.82 28.9867 132.053 28.8 132.286 28.8C132.566 28.8 132.706 28.9867 132.706 29.36C132.706 31.6933 131.283 35.1933 128.436 39.86C125.356 44.8533 121.553 47.35 117.026 47.35ZM113.316 35.31C116.07 34.8433 118.076 33.9567 119.336 32.65C120.643 31.3433 121.296 29.64 121.296 27.54C121.296 25.44 120.62 24.39 119.266 24.39C117.633 24.39 116.256 25.5333 115.136 27.82C114.016 30.06 113.41 32.5567 113.316 35.31ZM134.104 47.35C133.077 47.35 132.121 47.2333 131.234 47C130.394 46.72 129.881 46.4633 129.694 46.23C129.227 45.67 128.994 42.7767 128.994 37.55C128.994 32.2767 129.577 25.1367 130.744 16.13C131.724 8.71 134.011 5 137.604 5C138.444 5 139.051 5.46666 139.424 6.4C139.797 7.28666 139.984 8.15 139.984 8.99C139.984 15.0567 138.141 21.8467 134.454 29.36C134.314 33.2333 134.244 36.6167 134.244 39.51C134.244 42.3567 134.501 43.78 135.014 43.78C135.807 43.7333 136.904 42.7533 138.304 40.84C139.704 38.88 141.081 36.3833 142.434 33.35C143.834 30.3167 144.674 28.8 144.954 28.8C145.281 28.8 145.444 28.9867 145.444 29.36C145.444 30.6667 144.767 32.7433 143.414 35.59C139.727 43.43 136.624 47.35 134.104 47.35ZM138.234 9.62C138.234 8.12666 138.047 7.38 137.674 7.38C136.274 7.38 135.247 13.19 134.594 24.81C137.021 18.4167 138.234 13.3533 138.234 9.62ZM146.34 47.35C145.314 47.35 144.357 47.2333 143.47 47C142.63 46.72 142.117 46.4633 141.93 46.23C141.464 45.67 141.23 42.7767 141.23 37.55C141.23 32.2767 141.814 25.1367 142.98 16.13C143.96 8.71 146.247 5 149.84 5C150.68 5 151.287 5.46666 151.66 6.4C152.034 7.28666 152.22 8.15 152.22 8.99C152.22 15.0567 150.377 21.8467 146.69 29.36C146.55 33.2333 146.48 36.6167 146.48 39.51C146.48 42.3567 146.737 43.78 147.25 43.78C148.044 43.7333 149.14 42.7533 150.54 40.84C151.94 38.88 153.317 36.3833 154.67 33.35C156.07 30.3167 156.91 28.8 157.19 28.8C157.517 28.8 157.68 28.9867 157.68 29.36C157.68 30.6667 157.004 32.7433 155.65 35.59C151.964 43.43 148.86 47.35 146.34 47.35ZM150.47 9.62C150.47 8.12666 150.284 7.38 149.91 7.38C148.51 7.38 147.484 13.19 146.83 24.81C149.257 18.4167 150.47 13.3533 150.47 9.62ZM175.377 31.81C177.243 31.2033 178.527 30.69 179.227 30.27C179.973 29.8033 180.533 29.4533 180.907 29.22L181.747 28.73C181.98 28.59 182.167 28.52 182.307 28.52C182.68 28.52 182.867 28.73 182.867 29.15C182.867 29.57 182.143 30.3167 180.697 31.39C179.25 32.4167 177.453 33.35 175.307 34.19C174.98 38.11 173.743 41.2833 171.597 43.71C169.45 46.1367 166.393 47.35 162.427 47.35C159.533 47.35 157.317 46.2067 155.777 43.92C154.237 41.5867 153.467 38.88 153.467 35.8C153.467 32.6733 154.377 29.7333 156.197 26.98C158.063 24.2267 160.443 22.85 163.337 22.85C164.643 21.9167 166.183 21.45 167.957 21.45C169.777 21.45 171.457 22.4067 172.997 24.32C174.537 26.2333 175.33 28.73 175.377 31.81ZM170.827 35.38L168.307 35.52C166.16 35.52 164.34 34.89 162.847 33.63C161.353 32.3233 160.607 30.9 160.607 29.36C160.607 27.82 160.863 26.49 161.377 25.37C159.37 26.9567 158.367 30.0833 158.367 34.75C158.367 36.99 158.833 39.1367 159.767 41.19C160.7 43.1967 162.17 44.2 164.177 44.2C166.183 44.2 167.747 43.36 168.867 41.68C169.987 39.9533 170.64 37.8533 170.827 35.38ZM166.487 23.76C165.74 23.76 165.157 24.11 164.737 24.81C164.317 25.4633 164.107 26.1867 164.107 26.98C164.107 28.7067 164.69 30.1067 165.857 31.18C167.07 32.2533 168.47 32.79 170.057 32.79H170.897C170.803 30.5033 170.407 28.4267 169.707 26.56C169.053 24.6933 167.98 23.76 166.487 23.76ZM200.47 48.26C199.77 48.26 199.093 48.0267 198.44 47.56C197.787 47.14 197.46 46.4167 197.46 45.39C197.507 44.3633 197.973 43.57 198.86 43.01C199.793 42.4033 200.657 42.1 201.45 42.1C202.243 42.1 202.897 42.3333 203.41 42.8C203.97 43.22 204.25 43.7567 204.25 44.41C204.25 46.9767 202.99 48.26 200.47 48.26ZM205.09 6.4C205.51 6.4 205.977 6.65666 206.49 7.17C207.003 7.63667 207.26 8.22 207.26 8.92C207.26 9.57333 207.213 10.2267 207.12 10.88C207.027 11.4867 206.863 12.2333 206.63 13.12C206.443 13.96 206.21 15.1033 205.93 16.55C205.697 17.9967 205.207 21.1233 204.46 25.93C203.713 30.7367 203.177 34.0733 202.85 35.94C202.757 36.36 202.523 36.7567 202.15 37.13C201.823 37.5033 201.473 37.69 201.1 37.69C200.073 37.69 199.56 36.78 199.56 34.96C199.56 32.02 199.63 29.5467 199.77 27.54C199.91 25.4867 200.003 23.5733 200.05 21.8C200.097 17.9267 200.33 15.0567 200.75 13.19C201.217 11.2767 201.847 9.66666 202.64 8.36C203.48 7.05333 204.297 6.4 205.09 6.4Z" fill="white"/>
<path d="M95.97 68.86L96.25 81.88C96.25 97.56 90.8833 105.4 80.15 105.4C78.05 105.4 76.1367 104.91 74.41 103.93C72.73 102.95 71.89 101.433 71.89 99.38C71.89 98.12 72.2167 97.0933 72.87 96.3C73.5233 95.46 74.3867 95.04 75.46 95.04C76.58 95.04 77.14 95.2967 77.14 95.81C77.14 96.0433 77 96.51 76.72 97.21C76.44 97.8633 76.3 98.54 76.3 99.24C76.3 99.8933 76.6967 100.617 77.49 101.41C78.2833 102.157 79.4733 102.53 81.06 102.53C82.6467 102.53 84.0233 102.203 85.19 101.55C86.3567 100.897 87.29 99.94 87.99 98.68C88.69 97.3733 89.25 96.0433 89.67 94.69C90.1367 93.3367 90.4633 91.6333 90.65 89.58C90.93 86.5467 91.07 83.1167 91.07 79.29C91.07 75.4167 91.1167 72.22 91.21 69.7C85.2367 70.7267 82.25 73.2933 82.25 77.4C82.25 78.5667 81.9933 79.4767 81.48 80.13C81.0133 80.7833 80.4067 81.11 79.66 81.11C78.26 81.11 77.56 80.3167 77.56 78.73C77.56 75.8833 78.7967 73.5033 81.27 71.59C83.79 69.6767 87.1967 68.2533 91.49 67.32C91.8167 65.4067 92.61 63.8667 93.87 62.7C95.13 61.4867 96.2733 60.88 97.3 60.88C98.3267 60.88 99.1433 61.1833 99.75 61.79C100.403 62.35 100.73 63.12 100.73 64.1C100.73 66.3867 99.1433 67.9733 95.97 68.86ZM97.86 63.26C96.8333 63.26 96.2267 64.31 96.04 66.41C97.72 65.8967 98.56 65.22 98.56 64.38C98.56 63.6333 98.3267 63.26 97.86 63.26ZM102.88 63.4C103.86 63.4 104.56 63.5633 104.98 63.89C105.4 64.17 105.61 64.8 105.61 65.78C105.61 66.76 105.353 68.4633 104.84 70.89C104.373 73.3167 103.93 75.02 103.51 76C103.323 76.42 102.903 76.63 102.25 76.63C101.596 76.63 101.223 76.3733 101.13 75.86C100.756 74.2267 100.57 70.8433 100.57 65.71C100.57 64.17 101.34 63.4 102.88 63.4ZM114.912 100.22L114.982 102.39C114.982 103.697 114.608 104.35 113.862 104.35C112.742 104.35 111.668 104.21 110.642 103.93C109.615 103.603 109.102 103.183 109.102 102.67C109.102 102.11 109.218 100.267 109.452 97.14C109.732 93.9667 109.872 91.5867 109.872 90V85.87C109.872 83.63 110.105 82.2767 110.572 81.81C111.038 81.3433 111.855 80.6667 113.022 79.78C114.235 78.8933 115.098 78.45 115.612 78.45C116.172 78.45 116.522 78.5433 116.662 78.73C116.802 78.9167 116.872 79.2667 116.872 79.78C116.872 82.2533 116.405 84.5867 115.472 86.78C115.238 89.44 115.122 91.2833 115.122 92.31C117.595 87.69 119.322 84.6567 120.302 83.21C122.028 80.5033 123.592 79.15 124.992 79.15C125.878 79.15 126.695 79.5 127.442 80.2C128.235 80.9 128.632 81.7633 128.632 82.79C128.632 83.8167 128.608 84.7967 128.562 85.73C128.562 86.6167 128.538 87.3167 128.492 87.83C128.445 88.3433 128.422 88.67 128.422 88.81C128.608 88.4367 129.402 87.3867 130.802 85.66C132.202 83.9333 133.135 82.8133 133.602 82.3C134.115 81.7867 134.652 81.2733 135.212 80.76C136.285 79.6867 137.242 79.15 138.082 79.15C138.968 79.15 139.785 79.4767 140.532 80.13C141.325 80.7833 141.722 81.6 141.722 82.58C141.722 84.6333 141.488 87.6667 141.022 91.68C140.602 95.6467 140.392 98.1667 140.392 99.24C140.392 100.267 140.532 100.78 140.812 100.78C141.605 100.733 142.702 99.7533 144.102 97.84C145.502 95.88 146.878 93.3833 148.232 90.35C149.632 87.3167 150.472 85.8 150.752 85.8C151.078 85.8 151.242 85.9867 151.242 86.36C151.242 87.6667 150.565 89.7433 149.212 92.59C145.525 100.43 142.422 104.35 139.902 104.35C138.315 104.35 137.055 103.977 136.122 103.23C135.795 102.903 135.632 102.063 135.632 100.71C135.632 99.31 135.748 97.07 135.982 93.99C136.262 90.8633 136.402 88.53 136.402 86.99C136.402 85.45 136.145 84.68 135.632 84.68C135.025 84.68 133.695 85.7067 131.642 87.76C129.635 89.8133 128.562 91.26 128.422 92.1C128.142 93.6867 128.002 97.1167 128.002 102.39C128.002 103.697 127.652 104.35 126.952 104.35C125.878 104.35 124.852 104.21 123.872 103.93C122.938 103.603 122.472 103.183 122.472 102.67C122.472 102.11 122.612 99.8 122.892 95.74C123.172 91.68 123.312 88.8333 123.312 87.2C123.312 85.52 123.032 84.68 122.472 84.68C121.958 84.68 120.675 86.29 118.622 89.51C116.568 92.6833 115.425 94.9 115.192 96.16C115.005 97.42 114.912 98.7733 114.912 100.22ZM149.141 101.9C149.141 101.387 149.584 100.733 150.471 99.94C151.358 99.1 152.151 98.68 152.851 98.68C153.551 98.68 154.181 99.1233 154.741 100.01C155.301 100.85 155.581 101.853 155.581 103.02C155.581 104.187 154.718 105.96 152.991 108.34C151.311 110.767 149.888 111.98 148.721 111.98C148.348 111.98 148.161 111.723 148.161 111.21C148.161 110.697 148.628 109.833 149.561 108.62C150.494 107.407 150.961 106.45 150.961 105.75C150.961 105.097 150.658 104.42 150.051 103.72C149.444 103.02 149.141 102.413 149.141 101.9ZM214.84 106.31L217.64 106.03C218.06 106.03 218.27 106.217 218.27 106.59C218.177 107.43 217.43 108.317 216.03 109.25C214.677 110.183 213.09 110.65 211.27 110.65C209.31 110.65 207.257 108.457 205.11 104.07C203.244 100.383 201.354 96.0667 199.44 91.12C198.087 91.8667 196.687 92.3567 195.24 92.59C193.187 102.063 188.147 106.8 180.12 106.8C178.02 106.8 176.084 106.31 174.31 105.33C172.537 104.35 171.65 102.833 171.65 100.78C171.65 99.52 171.977 98.4933 172.63 97.7C173.284 96.86 174.147 96.44 175.22 96.44C176.34 96.44 176.9 96.6967 176.9 97.21C176.9 97.4433 176.76 97.91 176.48 98.61C176.2 99.2633 176.06 99.94 176.06 100.64C176.06 101.293 176.457 102.017 177.25 102.81C178.044 103.557 179.234 103.93 180.82 103.93C182.407 103.93 183.784 103.58 184.95 102.88C186.117 102.133 187.05 101.06 187.75 99.66C188.45 98.26 189.01 96.8367 189.43 95.39C189.897 93.9433 190.224 92.1467 190.41 90C190.737 86.92 190.9 83.3733 190.9 79.36C190.9 75.3467 190.947 72.1267 191.04 69.7C185.067 70.7267 182.08 73.2933 182.08 77.4C182.08 78.5667 181.824 79.4767 181.31 80.13C180.844 80.7833 180.237 81.11 179.49 81.11C178.09 81.11 177.39 80.3167 177.39 78.73C177.39 75.93 178.65 73.5733 181.17 71.66C183.69 69.7 187.05 68.2533 191.25 67.32C191.577 65.4533 192.394 63.9133 193.7 62.7C195.054 61.4867 196.244 60.88 197.27 60.88C198.344 60.88 199.184 61.1833 199.79 61.79C200.444 62.35 200.77 63.12 200.77 64.1C200.77 66.3867 199.184 67.9733 196.01 68.86L196.29 81.88C196.29 84.5867 196.127 87.1067 195.8 89.44C198.18 88.6933 200.514 86.57 202.8 83.07C205.087 79.57 207.047 75.1133 208.68 69.7C209.94 65.5 212.064 63.4 215.05 63.4C216.31 63.4 216.94 64.17 216.94 65.71C216.94 67.2033 216.007 68.58 214.14 69.84C213.44 70.3067 213.044 70.6333 212.95 70.82C209.31 79.1733 205.974 84.96 202.94 88.18C205.88 94.2 208.26 98.7267 210.08 101.76C211.947 104.793 213.534 106.31 214.84 106.31ZM197.9 63.26C196.92 63.26 196.314 64.31 196.08 66.41C197.76 65.8967 198.6 65.22 198.6 64.38C198.6 63.6333 198.367 63.26 197.9 63.26ZM237.053 104.35C235.233 104.35 233.856 103.977 232.923 103.23C232.596 102.903 232.433 102.087 232.433 100.78C232.433 99.4267 232.479 97.63 232.573 95.39C231.359 98.4233 230.146 100.687 228.933 102.18C227.766 103.627 226.249 104.35 224.383 104.35C222.516 104.35 220.883 103.487 219.483 101.76C218.083 99.9867 217.383 97.2333 217.383 93.5C217.383 89.72 218.433 86.3833 220.533 83.49C222.679 80.5967 225.479 79.15 228.933 79.15C230.426 79.15 232.106 80.13 233.973 82.09C234.346 81.5767 234.999 80.97 235.933 80.27C236.913 79.5233 237.729 79.15 238.383 79.15C239.083 79.15 239.433 80.0367 239.433 81.81C239.433 82.2767 239.293 83.1867 239.013 84.54C238.779 85.8933 238.499 86.8733 238.173 87.48C237.753 88.5533 237.543 92.3567 237.543 98.89C237.543 100.15 237.683 100.78 237.963 100.78C238.756 100.733 239.853 99.7533 241.253 97.84C242.653 95.88 244.029 93.3833 245.383 90.35C246.783 87.3167 247.623 85.8 247.903 85.8C248.229 85.8 248.393 85.9867 248.393 86.36C248.393 87.6667 247.716 89.7433 246.363 92.59C242.676 100.43 239.573 104.35 237.053 104.35ZM228.513 81.95C227.206 81.95 225.806 82.93 224.313 84.89C222.866 86.8033 222.143 89.0667 222.143 91.68C222.143 94.2933 222.516 96.44 223.263 98.12C224.056 99.8 225.083 100.64 226.343 100.64C227.883 100.64 230.146 96.79 233.133 89.09C233.179 88.7167 233.226 88.0867 233.273 87.2C233.366 86.2667 233.436 85.5667 233.483 85.1C233.063 84.3533 232.316 83.6533 231.243 83C230.216 82.3 229.306 81.95 228.513 81.95ZM250.27 85.73L254.12 85.31C254.493 85.31 254.82 85.52 255.1 85.94C255.38 86.36 255.52 86.8033 255.52 87.27C255.52 87.7367 255.356 89.3233 255.03 92.03C254.75 94.7367 254.61 96.8833 254.61 98.47C254.61 100.01 254.75 100.78 255.03 100.78C255.823 100.733 256.92 99.7533 258.32 97.84C259.72 95.88 261.096 93.3833 262.45 90.35C263.85 87.3167 264.69 85.8 264.97 85.8C265.296 85.8 265.46 85.9867 265.46 86.36C265.46 87.6667 264.783 89.7433 263.43 92.59C259.743 100.43 256.64 104.35 254.12 104.35C252.3 104.35 250.923 103.977 249.99 103.23C249.663 102.903 249.5 100.873 249.5 97.14C249.5 93.4067 249.896 90.21 250.69 87.55C247.983 87.55 246.093 86.6867 245.02 84.96C244.46 84.0733 244.18 83.07 244.18 81.95C244.18 80.83 244.413 79.85 244.88 79.01C245.346 78.17 246 77.75 246.84 77.75C247.726 77.75 248.52 78.2167 249.22 79.15C249.966 80.0367 250.34 81.04 250.34 82.16C250.34 83.28 250.013 84.4 249.36 85.52C249.546 85.66 249.85 85.73 250.27 85.73ZM264.611 69.77C264.611 68.93 265.055 68.2067 265.941 67.6C266.828 66.9933 267.621 66.69 268.321 66.69C269.581 66.69 270.211 67.4133 270.211 68.86C270.211 70.3067 269.838 71.5667 269.091 72.64C268.345 73.6667 267.295 74.18 265.941 74.18C265.055 74.18 264.611 72.71 264.611 69.77ZM266.641 104.35C264.821 104.35 263.445 103.977 262.511 103.23C262.185 102.903 262.021 101.737 262.021 99.73C262.021 97.7233 262.161 94.3867 262.441 89.72C262.768 85.0067 263.048 82.4633 263.281 82.09C263.515 81.7167 264.238 81.0167 265.451 79.99C266.665 78.9633 267.598 78.45 268.251 78.45C268.951 78.45 269.301 79.3367 269.301 81.11C269.301 81.5767 269.161 82.4867 268.881 83.84C268.648 85.1933 268.368 86.1733 268.041 86.78C267.435 88.32 267.131 92.3567 267.131 98.89C267.131 100.15 267.271 100.78 267.551 100.78C268.345 100.733 269.441 99.7533 270.841 97.84C272.241 95.88 273.618 93.3833 274.971 90.35C276.371 87.3167 277.211 85.8 277.491 85.8C277.818 85.8 277.981 85.9867 277.981 86.36C277.981 87.6667 277.305 89.7433 275.951 92.59C272.265 100.43 269.161 104.35 266.641 104.35ZM279.718 100.22L279.788 102.39C279.788 103.697 279.414 104.35 278.668 104.35C277.548 104.35 276.474 104.21 275.448 103.93C274.421 103.603 273.908 103.183 273.908 102.67C273.908 102.11 274.024 100.267 274.258 97.14C274.538 93.9667 274.678 91.5867 274.678 90V85.87C274.678 83.63 274.911 82.2767 275.378 81.81C275.844 81.3433 276.661 80.6667 277.828 79.78C279.041 78.8933 279.904 78.45 280.418 78.45C280.978 78.45 281.328 78.5433 281.468 78.73C281.608 78.9167 281.678 79.2667 281.678 79.78C281.678 82.2533 281.211 84.5867 280.278 86.78C280.044 89.44 279.928 91.2833 279.928 92.31C280.114 92.03 281.094 90.4433 282.868 87.55C284.641 84.6567 286.134 82.5333 287.348 81.18C288.608 79.8267 289.728 79.15 290.708 79.15C291.688 79.15 292.551 79.4767 293.298 80.13C294.091 80.7833 294.488 81.6 294.488 82.58C294.488 84.6333 294.254 87.6667 293.788 91.68C293.368 95.6467 293.158 98.1667 293.158 99.24C293.158 100.267 293.298 100.78 293.578 100.78C294.371 100.733 295.468 99.7533 296.868 97.84C298.268 95.88 299.644 93.3833 300.998 90.35C302.398 87.3167 303.238 85.8 303.518 85.8C303.844 85.8 304.008 85.9867 304.008 86.36C304.008 87.6667 303.331 89.7433 301.978 92.59C298.291 100.43 295.188 104.35 292.668 104.35C290.848 104.35 289.471 103.977 288.538 103.23C288.211 102.903 288.048 102.063 288.048 100.71C288.048 99.31 288.164 97.07 288.398 93.99C288.678 90.8633 288.818 88.53 288.818 86.99C288.818 85.45 288.538 84.68 287.978 84.68C287.464 84.68 286.064 86.29 283.778 89.51C281.491 92.6833 280.278 94.7133 280.138 95.6C279.858 97.2333 279.718 98.7733 279.718 100.22ZM319.904 104.35C318.084 104.35 316.708 103.977 315.774 103.23C315.448 102.903 315.284 102.087 315.284 100.78C315.284 99.4267 315.331 97.63 315.424 95.39C314.211 98.4233 312.998 100.687 311.784 102.18C310.618 103.627 309.101 104.35 307.234 104.35C305.368 104.35 303.734 103.487 302.334 101.76C300.934 99.9867 300.234 97.2333 300.234 93.5C300.234 89.72 301.284 86.3833 303.384 83.49C305.531 80.5967 308.331 79.15 311.784 79.15C313.278 79.15 314.958 80.13 316.824 82.09C317.198 81.5767 317.851 80.97 318.784 80.27C319.764 79.5233 320.581 79.15 321.234 79.15C321.934 79.15 322.284 80.0367 322.284 81.81C322.284 82.2767 322.144 83.1867 321.864 84.54C321.631 85.8933 321.351 86.8733 321.024 87.48C320.604 88.5533 320.394 92.3567 320.394 98.89C320.394 100.15 320.534 100.78 320.814 100.78C321.608 100.733 322.704 99.7533 324.104 97.84C325.504 95.88 326.881 93.3833 328.234 90.35C329.634 87.3167 330.474 85.8 330.754 85.8C331.081 85.8 331.244 85.9867 331.244 86.36C331.244 87.6667 330.568 89.7433 329.214 92.59C325.528 100.43 322.424 104.35 319.904 104.35ZM311.364 81.95C310.058 81.95 308.658 82.93 307.164 84.89C305.718 86.8033 304.994 89.0667 304.994 91.68C304.994 94.2933 305.368 96.44 306.114 98.12C306.908 99.8 307.934 100.64 309.194 100.64C310.734 100.64 312.998 96.79 315.984 89.09C316.031 88.7167 316.078 88.0867 316.124 87.2C316.218 86.2667 316.288 85.5667 316.334 85.1C315.914 84.3533 315.168 83.6533 314.094 83C313.068 82.3 312.158 81.95 311.364 81.95Z" fill="white"/>
<path d="M88.656 129.56L88.488 131.632C88.488 134.245 88.656 136.551 88.992 138.548C89.328 140.527 89.7293 141.516 90.196 141.516C90.8307 141.516 91.5307 140.629 92.296 138.856C93.0613 137.083 93.444 135.309 93.444 133.536C93.444 131.501 93.2293 130.12 92.8 129.392C92.632 129.131 92.3707 128.823 92.016 128.468C91.3627 127.815 91.036 127.189 91.036 126.592C91.036 126.312 91.1107 126.088 91.26 125.92C91.428 125.733 91.624 125.64 91.848 125.64C92.4267 125.64 92.912 125.873 93.304 126.34C93.696 126.788 93.976 127.376 94.144 128.104C94.4613 129.392 94.62 130.755 94.62 132.192C94.62 135.533 93.9947 138.24 92.744 140.312C91.512 142.384 90.2987 143.42 89.104 143.42C88.2453 143.42 87.6013 142.505 87.172 140.676C86.7613 138.847 86.556 136.523 86.556 133.704C85.436 138.371 84.2507 141.32 83 142.552C82.384 143.131 81.7213 143.42 81.012 143.42C80.6387 143.42 80.2653 143.261 79.892 142.944C79.5373 142.608 79.276 142.169 79.108 141.628C78.7347 140.527 78.548 138.427 78.548 135.328C77.764 135.216 77.064 135.011 76.448 134.712C76.1493 134.563 76 134.395 76 134.208C76 134.021 76.1867 133.928 76.56 133.928L78.576 134.348C78.744 131.119 79.3507 128.627 80.396 126.872C80.956 125.92 81.5813 125.444 82.272 125.444C83.5227 125.444 84.148 126.377 84.148 128.244C84.148 129.756 83.8587 131.203 83.28 132.584C82.7013 133.965 81.8333 134.843 80.676 135.216C80.676 136.467 80.7507 137.587 80.9 138.576C81.1987 140.536 81.5627 141.516 81.992 141.516C82.3467 141.516 82.8133 140.984 83.392 139.92C83.9707 138.837 84.5307 137.381 85.072 135.552C85.632 133.723 85.996 131.921 86.164 130.148C86.1827 129.887 86.4347 129.588 86.92 129.252C87.4053 128.916 87.7413 128.748 87.928 128.748C88.4133 128.748 88.656 129.019 88.656 129.56ZM80.676 134.348C81.4787 134.031 82.0947 133.275 82.524 132.08C82.972 130.867 83.196 129.915 83.196 129.224C83.196 128.515 83.168 127.992 83.112 127.656C82.9813 127.077 82.804 126.788 82.58 126.788C82.1693 126.788 81.7587 127.647 81.348 129.364C80.956 131.063 80.732 132.724 80.676 134.348ZM98.7207 143.14C97.6754 143.14 96.8447 142.748 96.2287 141.964C95.6127 141.161 95.3047 140.256 95.3047 139.248C95.3047 137.213 95.734 135.673 96.5927 134.628C97.4514 133.583 98.562 133.06 99.9247 133.06C100.559 133.06 101.082 133.237 101.493 133.592C101.903 133.928 102.109 134.395 102.109 134.992C102.109 136.112 101.633 137.055 100.681 137.82C99.7474 138.567 98.5994 138.959 97.2367 138.996C97.3114 139.724 97.554 140.359 97.9647 140.9C98.394 141.423 98.8887 141.684 99.4487 141.684C100.009 141.684 100.513 141.553 100.961 141.292C101.409 141.031 101.819 140.657 102.193 140.172C102.977 139.145 103.649 137.979 104.209 136.672C104.358 136.336 104.47 136.093 104.545 135.944C104.638 135.795 104.731 135.72 104.825 135.72C104.937 135.72 104.993 135.795 104.993 135.944C104.993 136.877 104.423 138.277 103.285 140.144C102.053 142.141 100.531 143.14 98.7207 143.14ZM97.2367 138.324C98.338 138.137 99.1407 137.783 99.6447 137.26C100.167 136.737 100.429 136.056 100.429 135.216C100.429 134.376 100.158 133.956 99.6167 133.956C98.9634 133.956 98.4127 134.413 97.9647 135.328C97.5167 136.224 97.274 137.223 97.2367 138.324ZM108.744 133.34C109.602 133.34 110.312 133.657 110.872 134.292C111.432 134.908 111.721 135.776 111.74 136.896C112.505 136.672 113.177 136.401 113.756 136.084C114.353 135.767 114.67 135.608 114.708 135.608C114.82 135.608 114.876 135.701 114.876 135.888C114.876 136.075 114.605 136.364 114.064 136.756C113.541 137.148 112.748 137.54 111.684 137.932C111.46 139.593 110.788 140.881 109.668 141.796C108.548 142.692 107.428 143.14 106.308 143.14C105.188 143.14 104.441 142.729 104.068 141.908C103.694 141.068 103.508 139.752 103.508 137.96C103.508 136.168 103.638 134.469 103.9 132.864C104.161 131.259 104.497 129.999 104.908 129.084C105.318 128.151 105.738 127.441 106.168 126.956C106.616 126.452 107.036 126.2 107.428 126.2C107.614 126.2 107.782 126.424 107.932 126.872C108.1 127.32 108.184 127.871 108.184 128.524C108.184 129.961 107.922 131.641 107.4 133.564C107.754 133.415 108.202 133.34 108.744 133.34ZM110.004 138.38C109.854 138.399 109.537 138.408 109.052 138.408C108.585 138.408 108.062 138.249 107.484 137.932C106.924 137.596 106.541 137.139 106.336 136.56C106.149 137.027 105.934 137.475 105.692 137.904C105.729 139.323 105.841 140.34 106.028 140.956C106.214 141.572 106.513 141.88 106.924 141.88C107.577 141.88 108.212 141.609 108.828 141.068C109.462 140.508 109.854 139.612 110.004 138.38ZM107.512 129.028C107.512 128.244 107.409 127.852 107.204 127.852C107.036 127.852 106.83 128.263 106.588 129.084C106.364 129.887 106.149 130.988 105.944 132.388C105.757 133.769 105.664 135.141 105.664 136.504C106.896 133.013 107.512 130.521 107.512 129.028ZM108.296 134.348C108.034 134.348 107.82 134.432 107.652 134.6C107.502 134.749 107.428 134.955 107.428 135.216C107.428 135.795 107.68 136.28 108.184 136.672C108.706 137.045 109.332 137.232 110.06 137.232C110.041 136.467 109.892 135.795 109.612 135.216C109.332 134.637 108.893 134.348 108.296 134.348ZM120.403 135.524C120.347 136.812 119.554 137.456 118.023 137.456C117.78 137.456 117.407 137.419 116.903 137.344C116.399 137.251 115.895 137.204 115.391 137.204C114.906 137.204 114.514 137.223 114.215 137.26C113.935 137.297 113.776 137.316 113.739 137.316C113.347 137.297 113.16 137.101 113.179 136.728C113.179 136.336 113.366 136.065 113.739 135.916C114 135.785 114.868 135.72 116.343 135.72C117.836 135.72 118.788 135.636 119.199 135.468C119.628 135.3 119.936 135.216 120.123 135.216C120.31 135.216 120.403 135.319 120.403 135.524ZM129.562 143.14C128.927 143.14 128.433 143 128.078 142.72C127.929 142.571 127.854 142.179 127.854 141.544C127.854 140.909 127.882 140.079 127.938 139.052C127.434 140.396 126.921 141.413 126.398 142.104C125.875 142.795 125.213 143.14 124.41 143.14C123.626 143.14 122.954 142.795 122.394 142.104C121.853 141.413 121.582 140.312 121.582 138.8C121.582 137.288 122.002 135.953 122.842 134.796C123.701 133.639 124.821 133.06 126.202 133.06C126.874 133.06 127.574 133.321 128.302 133.844C128.601 130.204 128.871 128.151 129.114 127.684C129.226 127.479 129.487 127.18 129.898 126.788C130.327 126.396 130.682 126.2 130.962 126.2C131.242 126.2 131.382 126.639 131.382 127.516C131.382 128.543 131.289 129.429 131.102 130.176C130.598 132.099 130.281 133.321 130.15 133.844C129.889 135.86 129.758 138.231 129.758 140.956C129.758 141.46 129.814 141.712 129.926 141.712C130.262 141.693 130.71 141.301 131.27 140.536C131.83 139.771 132.381 138.781 132.922 137.568C133.482 136.336 133.818 135.72 133.93 135.72C134.061 135.72 134.126 135.795 134.126 135.944C134.126 136.467 133.855 137.297 133.314 138.436C131.839 141.572 130.589 143.14 129.562 143.14ZM126.034 134.068C125.53 134.068 125.026 134.469 124.522 135.272C124.018 136.075 123.766 137.008 123.766 138.072C123.766 139.117 123.897 139.976 124.158 140.648C124.438 141.32 124.783 141.656 125.194 141.656C126.034 141.656 126.995 139.976 128.078 136.616C128.171 135.589 128.218 134.983 128.218 134.796C127.677 134.311 126.949 134.068 126.034 134.068ZM136.018 143.14C134.972 143.14 134.142 142.748 133.526 141.964C132.91 141.161 132.602 140.256 132.602 139.248C132.602 137.213 133.031 135.673 133.89 134.628C134.748 133.583 135.859 133.06 137.222 133.06C137.856 133.06 138.379 133.237 138.79 133.592C139.2 133.928 139.406 134.395 139.406 134.992C139.406 136.112 138.93 137.055 137.978 137.82C137.044 138.567 135.896 138.959 134.534 138.996C134.608 139.724 134.851 140.359 135.262 140.9C135.691 141.423 136.186 141.684 136.746 141.684C137.306 141.684 137.81 141.553 138.258 141.292C138.706 141.031 139.116 140.657 139.49 140.172C140.274 139.145 140.946 137.979 141.506 136.672C141.655 136.336 141.767 136.093 141.842 135.944C141.935 135.795 142.028 135.72 142.122 135.72C142.234 135.72 142.29 135.795 142.29 135.944C142.29 136.877 141.72 138.277 140.582 140.144C139.35 142.141 137.828 143.14 136.018 143.14ZM134.534 138.324C135.635 138.137 136.438 137.783 136.942 137.26C137.464 136.737 137.726 136.056 137.726 135.216C137.726 134.376 137.455 133.956 136.914 133.956C136.26 133.956 135.71 134.413 135.262 135.328C134.814 136.224 134.571 137.223 134.534 138.324ZM144.305 141.768C144.977 141.768 145.565 141.423 146.069 140.732C146.573 140.023 146.946 139.164 147.189 138.156C146.517 137.951 146.003 137.596 145.649 137.092C145.294 136.569 145.117 135.972 145.117 135.3C145.117 134.628 145.285 134.04 145.621 133.536C145.975 133.032 146.479 132.78 147.133 132.78C147.525 132.78 147.823 133.032 148.029 133.536C148.234 134.021 148.337 134.572 148.337 135.188C148.337 135.804 148.29 136.42 148.197 137.036C148.477 137.148 148.775 137.204 149.093 137.204C149.821 137.204 150.521 136.868 151.193 136.196C151.529 135.86 151.753 135.692 151.865 135.692C151.995 135.692 152.061 135.785 152.061 135.972C152.061 136.159 151.939 136.383 151.697 136.644C150.707 137.745 149.457 138.296 147.945 138.296C147.59 139.659 147.039 140.807 146.293 141.74C145.546 142.673 144.631 143.14 143.549 143.14C142.914 143.14 142.391 142.869 141.981 142.328C141.29 141.451 140.945 140.163 140.945 138.464C140.945 137.885 140.991 137.139 141.085 136.224C141.178 135.309 141.281 134.749 141.393 134.544C141.523 134.339 141.822 134.087 142.289 133.788C142.774 133.489 143.11 133.34 143.297 133.34C143.577 133.34 143.717 133.508 143.717 133.844C143.717 134.796 143.474 135.832 142.989 136.952C142.989 138.277 143.091 139.416 143.297 140.368C143.521 141.301 143.857 141.768 144.305 141.768ZM146.853 133.844C146.703 133.844 146.629 134.152 146.629 134.768C146.629 135.384 146.909 135.972 147.469 136.532C147.506 136.308 147.525 136.084 147.525 135.86C147.525 134.516 147.301 133.844 146.853 133.844ZM154.01 143.14C152.964 143.14 152.134 142.748 151.518 141.964C150.902 141.161 150.594 140.256 150.594 139.248C150.594 137.213 151.023 135.673 151.882 134.628C152.74 133.583 153.851 133.06 155.214 133.06C155.848 133.06 156.371 133.237 156.782 133.592C157.192 133.928 157.398 134.395 157.398 134.992C157.398 136.112 156.922 137.055 155.97 137.82C155.036 138.567 153.888 138.959 152.526 138.996C152.6 139.724 152.843 140.359 153.254 140.9C153.683 141.423 154.178 141.684 154.738 141.684C155.298 141.684 155.802 141.553 156.25 141.292C156.698 141.031 157.108 140.657 157.482 140.172C158.266 139.145 158.938 137.979 159.498 136.672C159.647 136.336 159.759 136.093 159.834 135.944C159.927 135.795 160.02 135.72 160.114 135.72C160.226 135.72 160.282 135.795 160.282 135.944C160.282 136.877 159.712 138.277 158.574 140.144C157.342 142.141 155.82 143.14 154.01 143.14ZM152.526 138.324C153.627 138.137 154.43 137.783 154.934 137.26C155.456 136.737 155.718 136.056 155.718 135.216C155.718 134.376 155.447 133.956 154.906 133.956C154.252 133.956 153.702 134.413 153.254 135.328C152.806 136.224 152.563 137.223 152.526 138.324ZM160.841 143.14C160.43 143.14 160.048 143.093 159.693 143C159.357 142.888 159.152 142.785 159.077 142.692C158.89 142.468 158.797 141.311 158.797 139.22C158.797 137.111 159.03 134.255 159.497 130.652C159.889 127.684 160.804 126.2 162.241 126.2C162.577 126.2 162.82 126.387 162.969 126.76C163.118 127.115 163.193 127.46 163.193 127.796C163.193 130.223 162.456 132.939 160.981 135.944C160.925 137.493 160.897 138.847 160.897 140.004C160.897 141.143 161 141.712 161.205 141.712C161.522 141.693 161.961 141.301 162.521 140.536C163.081 139.752 163.632 138.753 164.173 137.54C164.733 136.327 165.069 135.72 165.181 135.72C165.312 135.72 165.377 135.795 165.377 135.944C165.377 136.467 165.106 137.297 164.565 138.436C163.09 141.572 161.849 143.14 160.841 143.14ZM162.493 128.048C162.493 127.451 162.418 127.152 162.269 127.152C161.709 127.152 161.298 129.476 161.037 134.124C162.008 131.567 162.493 129.541 162.493 128.048ZM172.455 136.924C173.202 136.681 173.715 136.476 173.995 136.308C174.294 136.121 174.518 135.981 174.667 135.888L175.003 135.692C175.097 135.636 175.171 135.608 175.227 135.608C175.377 135.608 175.451 135.692 175.451 135.86C175.451 136.028 175.162 136.327 174.583 136.756C174.005 137.167 173.286 137.54 172.427 137.876C172.297 139.444 171.802 140.713 170.943 141.684C170.085 142.655 168.862 143.14 167.275 143.14C166.118 143.14 165.231 142.683 164.615 141.768C163.999 140.835 163.691 139.752 163.691 138.52C163.691 137.269 164.055 136.093 164.783 134.992C165.53 133.891 166.482 133.34 167.639 133.34C168.162 132.967 168.778 132.78 169.487 132.78C170.215 132.78 170.887 133.163 171.503 133.928C172.119 134.693 172.437 135.692 172.455 136.924ZM170.635 138.352L169.627 138.408C168.769 138.408 168.041 138.156 167.443 137.652C166.846 137.129 166.547 136.56 166.547 135.944C166.547 135.328 166.65 134.796 166.855 134.348C166.053 134.983 165.651 136.233 165.651 138.1C165.651 138.996 165.838 139.855 166.211 140.676C166.585 141.479 167.173 141.88 167.975 141.88C168.778 141.88 169.403 141.544 169.851 140.872C170.299 140.181 170.561 139.341 170.635 138.352ZM168.899 133.704C168.601 133.704 168.367 133.844 168.199 134.124C168.031 134.385 167.947 134.675 167.947 134.992C167.947 135.683 168.181 136.243 168.647 136.672C169.133 137.101 169.693 137.316 170.327 137.316H170.663C170.626 136.401 170.467 135.571 170.187 134.824C169.926 134.077 169.497 133.704 168.899 133.704ZM174.759 134.292C174.964 134.049 175.291 133.741 175.739 133.368C176.187 132.976 176.541 132.78 176.803 132.78C177.064 132.78 177.195 133.153 177.195 133.9C177.195 134.628 176.999 135.347 176.607 136.056C176.532 136.392 176.476 136.877 176.439 137.512C176.98 136.037 177.521 134.927 178.063 134.18C178.604 133.433 179.257 133.06 180.023 133.06C180.807 133.06 181.488 133.415 182.067 134.124C182.645 134.815 182.935 135.916 182.935 137.428C182.935 138.921 182.505 140.247 181.647 141.404C180.807 142.561 179.696 143.14 178.315 143.14C177.605 143.14 176.887 142.879 176.159 142.356C176.159 145.921 175.953 148.637 175.543 150.504C175.505 150.672 175.253 150.952 174.787 151.344C174.339 151.755 174.012 151.96 173.807 151.96C173.583 151.96 173.424 151.811 173.331 151.512C173.237 151.213 173.191 150.933 173.191 150.672C173.191 148.749 173.583 146.276 174.367 143.252C174.497 141.497 174.581 139.575 174.619 137.484C174.675 135.393 174.721 134.329 174.759 134.292ZM178.483 142.132C179.024 142.132 179.584 141.759 180.163 141.012C180.741 140.247 181.031 139.313 181.031 138.212C181.031 137.092 180.872 136.205 180.555 135.552C180.256 134.88 179.845 134.544 179.323 134.544C178.427 134.544 177.409 136.401 176.271 140.116C176.233 140.639 176.215 141.049 176.215 141.348C176.737 141.871 177.493 142.132 178.483 142.132ZM187.396 143.14C186.351 143.14 185.52 142.748 184.904 141.964C184.288 141.161 183.98 140.256 183.98 139.248C183.98 137.213 184.41 135.673 185.268 134.628C186.127 133.583 187.238 133.06 188.6 133.06C189.235 133.06 189.758 133.237 190.168 133.592C190.579 133.928 190.784 134.395 190.784 134.992C190.784 136.112 190.308 137.055 189.356 137.82C188.423 138.567 187.275 138.959 185.912 138.996C185.987 139.724 186.23 140.359 186.64 140.9C187.07 141.423 187.564 141.684 188.124 141.684C188.684 141.684 189.188 141.553 189.636 141.292C190.084 141.031 190.495 140.657 190.868 140.172C191.652 139.145 192.324 137.979 192.884 136.672C193.034 136.336 193.146 136.093 193.22 135.944C193.314 135.795 193.407 135.72 193.5 135.72C193.612 135.72 193.668 135.795 193.668 135.944C193.668 136.877 193.099 138.277 191.96 140.144C190.728 142.141 189.207 143.14 187.396 143.14ZM185.912 138.324C187.014 138.137 187.816 137.783 188.32 137.26C188.843 136.737 189.104 136.056 189.104 135.216C189.104 134.376 188.834 133.956 188.292 133.956C187.639 133.956 187.088 134.413 186.64 135.328C186.192 136.224 185.95 137.223 185.912 138.324ZM194.62 135.692L196.16 135.524C196.309 135.524 196.44 135.608 196.552 135.776C196.664 135.944 196.72 136.121 196.72 136.308C196.72 136.495 196.654 137.129 196.524 138.212C196.412 139.295 196.356 140.153 196.356 140.788C196.356 141.404 196.412 141.712 196.524 141.712C196.841 141.693 197.28 141.301 197.84 140.536C198.4 139.752 198.95 138.753 199.492 137.54C200.052 136.327 200.388 135.72 200.5 135.72C200.63 135.72 200.696 135.795 200.696 135.944C200.696 136.467 200.425 137.297 199.884 138.436C198.409 141.572 197.168 143.14 196.16 143.14C195.432 143.14 194.881 142.991 194.508 142.692C194.377 142.561 194.312 141.749 194.312 140.256C194.312 138.763 194.47 137.484 194.788 136.42C193.705 136.42 192.949 136.075 192.52 135.384C192.296 135.029 192.184 134.628 192.184 134.18C192.184 133.732 192.277 133.34 192.464 133.004C192.65 132.668 192.912 132.5 193.248 132.5C193.602 132.5 193.92 132.687 194.2 133.06C194.498 133.415 194.648 133.816 194.648 134.264C194.648 134.712 194.517 135.16 194.256 135.608C194.33 135.664 194.452 135.692 194.62 135.692Z" fill="white"/>
</svg>
