<svg width="498" height="230" viewBox="0 0 498 230" fill="none" xmlns="http://www.w3.org/2000/svg">
<g filter="url(#filter0_dd)">
<path d="M26.25 47H100C118.5 47 134.917 50.6667 149.25 58C163.583 65.3333 174.667 75.6667 182.5 89C190.5 102.167 194.5 117.333 194.5 134.5C194.5 151.667 190.5 166.917 182.5 180.25C174.667 193.417 163.583 203.667 149.25 211C134.917 218.333 118.5 222 100 222H26.25V47ZM98.5 200.25C112.667 200.25 125.083 197.5 135.75 192C146.583 186.5 154.917 178.833 160.75 169C166.583 159 169.5 147.5 169.5 134.5C169.5 121.5 166.583 110.083 160.75 100.25C154.917 90.25 146.583 82.5 135.75 77C125.083 71.5 112.667 68.75 98.5 68.75H51.25V200.25H98.5Z" fill="#AAFFFF"/>
</g>
<g filter="url(#filter1_dd)">
<path d="M115 166.995C115 167.728 114.933 168.695 114.8 169.895H71.8C72.4 174.561 74.4333 178.328 77.9 181.195C81.4333 183.995 85.8 185.395 91 185.395C97.3333 185.395 102.433 183.261 106.3 178.995L111.6 185.195C109.2 187.995 106.2 190.128 102.6 191.595C99.0667 193.061 95.1 193.795 90.7 193.795C85.1 193.795 80.1333 192.661 75.8 190.395C71.4667 188.061 68.1 184.828 65.7 180.695C63.3667 176.561 62.2 171.895 62.2 166.695C62.2 161.561 63.3333 156.928 65.6 152.795C67.9333 148.661 71.1 145.461 75.1 143.195C79.1667 140.861 83.7333 139.695 88.8 139.695C93.8667 139.695 98.3667 140.861 102.3 143.195C106.3 145.461 109.4 148.661 111.6 152.795C113.867 156.928 115 161.661 115 166.995ZM88.8 147.795C84.2 147.795 80.3333 149.195 77.2 151.995C74.1333 154.795 72.3333 158.461 71.8 162.995H105.8C105.267 158.528 103.433 154.895 100.3 152.095C97.2333 149.228 93.4 147.795 88.8 147.795ZM143.53 193.795C139.197 193.795 135.03 193.228 131.03 192.095C127.03 190.895 123.897 189.395 121.63 187.595L125.63 179.995C127.964 181.661 130.797 182.995 134.13 183.995C137.464 184.995 140.83 185.495 144.23 185.495C152.63 185.495 156.83 183.095 156.83 178.295C156.83 176.695 156.264 175.428 155.13 174.495C153.997 173.561 152.564 172.895 150.83 172.495C149.164 172.028 146.764 171.528 143.63 170.995C139.364 170.328 135.864 169.561 133.13 168.695C130.464 167.828 128.164 166.361 126.23 164.295C124.297 162.228 123.33 159.328 123.33 155.595C123.33 150.795 125.33 146.961 129.33 144.095C133.33 141.161 138.697 139.695 145.43 139.695C148.964 139.695 152.497 140.128 156.03 140.995C159.564 141.861 162.464 143.028 164.73 144.495L160.63 152.095C156.297 149.295 151.197 147.895 145.33 147.895C141.264 147.895 138.164 148.561 136.03 149.895C133.897 151.228 132.83 152.995 132.83 155.195C132.83 156.928 133.43 158.295 134.63 159.295C135.83 160.295 137.297 161.028 139.03 161.495C140.83 161.961 143.33 162.495 146.53 163.095C150.797 163.828 154.23 164.628 156.83 165.495C159.497 166.295 161.764 167.695 163.63 169.695C165.497 171.695 166.43 174.495 166.43 178.095C166.43 182.895 164.364 186.728 160.23 189.595C156.164 192.395 150.597 193.795 143.53 193.795ZM178.428 140.195H188.028V193.195H178.428V140.195ZM183.228 129.995C181.361 129.995 179.795 129.395 178.528 128.195C177.328 126.995 176.728 125.528 176.728 123.795C176.728 122.061 177.328 120.595 178.528 119.395C179.795 118.128 181.361 117.495 183.228 117.495C185.095 117.495 186.628 118.095 187.828 119.295C189.095 120.428 189.728 121.861 189.728 123.595C189.728 125.395 189.095 126.928 187.828 128.195C186.628 129.395 185.095 129.995 183.228 129.995ZM225.658 139.695C232.991 139.695 238.591 141.495 242.458 145.095C246.391 148.695 248.358 154.061 248.358 161.195V193.195H239.258V186.195C237.658 188.661 235.358 190.561 232.358 191.895C229.424 193.161 225.924 193.795 221.858 193.795C215.924 193.795 211.158 192.361 207.558 189.495C204.024 186.628 202.258 182.861 202.258 178.195C202.258 173.528 203.958 169.795 207.358 166.995C210.758 164.128 216.158 162.695 223.558 162.695H238.758V160.795C238.758 156.661 237.558 153.495 235.158 151.295C232.758 149.095 229.224 147.995 224.558 147.995C221.424 147.995 218.358 148.528 215.358 149.595C212.358 150.595 209.824 151.961 207.758 153.695L203.758 146.495C206.491 144.295 209.758 142.628 213.558 141.495C217.358 140.295 221.391 139.695 225.658 139.695ZM223.458 186.395C227.124 186.395 230.291 185.595 232.958 183.995C235.624 182.328 237.558 179.995 238.758 176.995V169.595H223.958C215.824 169.595 211.758 172.328 211.758 177.795C211.758 180.461 212.791 182.561 214.858 184.095C216.924 185.628 219.791 186.395 223.458 186.395ZM295.923 190.095C294.523 191.295 292.79 192.228 290.723 192.895C288.657 193.495 286.523 193.795 284.323 193.795C278.99 193.795 274.857 192.361 271.923 189.495C268.99 186.628 267.523 182.528 267.523 177.195V148.095H258.523V140.195H267.523V128.595H277.123V140.195H292.323V148.095H277.123V176.795C277.123 179.661 277.823 181.861 279.223 183.395C280.69 184.928 282.757 185.695 285.423 185.695C288.357 185.695 290.857 184.861 292.923 183.195L295.923 190.095ZM335.83 139.695C342.563 139.695 347.896 141.661 351.83 145.595C355.83 149.461 357.83 155.161 357.83 162.695V193.195H348.23V163.795C348.23 158.661 346.996 154.795 344.53 152.195C342.063 149.595 338.53 148.295 333.93 148.295C328.73 148.295 324.63 149.828 321.63 152.895C318.63 155.895 317.13 160.228 317.13 165.895V193.195H307.53V140.195H316.73V148.195C318.663 145.461 321.263 143.361 324.53 141.895C327.863 140.428 331.63 139.695 335.83 139.695ZM421.52 140.195L395.82 198.495C393.553 203.895 390.886 207.695 387.82 209.895C384.82 212.095 381.186 213.195 376.92 213.195C374.32 213.195 371.786 212.761 369.32 211.895C366.92 211.095 364.92 209.895 363.32 208.295L367.42 201.095C370.153 203.695 373.32 204.995 376.92 204.995C379.253 204.995 381.186 204.361 382.72 203.095C384.32 201.895 385.753 199.795 387.02 196.795L388.72 193.095L365.32 140.195H375.32L393.82 182.595L412.12 140.195H421.52ZM451.079 168.495L440.079 178.695V193.195H430.479V118.995H440.079V166.595L468.979 140.195H480.579L458.279 162.095L482.779 193.195H470.979L451.079 168.495Z" fill="white"/>
</g>
<defs>
<filter id="filter0_dd" x="22.25" y="47" width="176.25" height="183" filterUnits="userSpaceOnUse" color-interpolation-filters="sRGB">
<feFlood flood-opacity="0" result="BackgroundImageFix"/>
<feColorMatrix in="SourceAlpha" type="matrix" values="0 0 0 0 0 0 0 0 0 0 0 0 0 0 0 0 0 0 127 0"/>
<feOffset dy="4"/>
<feGaussianBlur stdDeviation="2"/>
<feColorMatrix type="matrix" values="0 0 0 0 0 0 0 0 0 0 0 0 0 0 0 0 0 0 0.25 0"/>
<feBlend mode="normal" in2="BackgroundImageFix" result="effect1_dropShadow"/>
<feColorMatrix in="SourceAlpha" type="matrix" values="0 0 0 0 0 0 0 0 0 0 0 0 0 0 0 0 0 0 127 0"/>
<feOffset dy="4"/>
<feGaussianBlur stdDeviation="2"/>
<feColorMatrix type="matrix" values="0 0 0 0 0 0 0 0 0 0 0 0 0 0 0 0 0 0 0.25 0"/>
<feBlend mode="normal" in2="effect1_dropShadow" result="effect2_dropShadow"/>
<feBlend mode="normal" in="SourceGraphic" in2="effect2_dropShadow" result="shape"/>
</filter>
<filter id="filter1_dd" x="58.2" y="117.495" width="428.579" height="103.7" filterUnits="userSpaceOnUse" color-interpolation-filters="sRGB">
<feFlood flood-opacity="0" result="BackgroundImageFix"/>
<feColorMatrix in="SourceAlpha" type="matrix" values="0 0 0 0 0 0 0 0 0 0 0 0 0 0 0 0 0 0 127 0"/>
<feOffset dy="4"/>
<feGaussianBlur stdDeviation="2"/>
<feColorMatrix type="matrix" values="0 0 0 0 0 0 0 0 0 0 0 0 0 0 0 0 0 0 0.25 0"/>
<feBlend mode="normal" in2="BackgroundImageFix" result="effect1_dropShadow"/>
<feColorMatrix in="SourceAlpha" type="matrix" values="0 0 0 0 0 0 0 0 0 0 0 0 0 0 0 0 0 0 127 0"/>
<feOffset dy="4"/>
<feGaussianBlur stdDeviation="2"/>
<feColorMatrix type="matrix" values="0 0 0 0 0 0 0 0 0 0 0 0 0 0 0 0 0 0 0.25 0"/>
<feBlend mode="normal" in2="effect1_dropShadow" result="effect2_dropShadow"/>
<feBlend mode="normal" in="SourceGraphic" in2="effect2_dropShadow" result="shape"/>
</filter>
</defs>
</svg>
