<svg width="350" height="100" viewBox="0 0 350 100" fill="none" xmlns="http://www.w3.org/2000/svg">
<path d="M11.82 32H21C23.24 32 25.23 32.44 26.97 33.32C28.71 34.18 30.06 35.41 31.02 37.01C31.98 38.59 32.46 40.42 32.46 42.5C32.46 44.58 31.98 46.42 31.02 48.02C30.06 49.6 28.71 50.83 26.97 51.71C25.23 52.57 23.24 53 21 53H11.82V32ZM20.82 49.7C22.36 49.7 23.71 49.41 24.87 48.83C26.05 48.23 26.95 47.39 27.57 46.31C28.21 45.21 28.53 43.94 28.53 42.5C28.53 41.06 28.21 39.8 27.57 38.72C26.95 37.62 26.05 36.78 24.87 36.2C23.71 35.6 22.36 35.3 20.82 35.3H15.72V49.7H20.82ZM51.3052 45.08C51.3052 45.34 51.2852 45.71 51.2452 46.19H38.6752C38.8952 47.37 39.4652 48.31 40.3852 49.01C41.3252 49.69 42.4852 50.03 43.8652 50.03C45.6252 50.03 47.0752 49.45 48.2152 48.29L50.2252 50.6C49.5052 51.46 48.5952 52.11 47.4952 52.55C46.3952 52.99 45.1552 53.21 43.7752 53.21C42.0152 53.21 40.4652 52.86 39.1252 52.16C37.7852 51.46 36.7452 50.49 36.0052 49.25C35.2852 47.99 34.9252 46.57 34.9252 44.99C34.9252 43.43 35.2752 42.03 35.9752 40.79C36.6952 39.53 37.6852 38.55 38.9452 37.85C40.2052 37.15 41.6252 36.8 43.2052 36.8C44.7652 36.8 46.1552 37.15 47.3752 37.85C48.6152 38.53 49.5752 39.5 50.2552 40.76C50.9552 42 51.3052 43.44 51.3052 45.08ZM43.2052 39.8C42.0052 39.8 40.9852 40.16 40.1452 40.88C39.3252 41.58 38.8252 42.52 38.6452 43.7H47.7352C47.5752 42.54 47.0852 41.6 46.2652 40.88C45.4452 40.16 44.4252 39.8 43.2052 39.8ZM59.8573 53.21C58.5573 53.21 57.2873 53.04 56.0473 52.7C54.8073 52.36 53.8173 51.93 53.0773 51.41L54.5173 48.56C55.2373 49.04 56.0973 49.43 57.0973 49.73C58.1173 50.01 59.1173 50.15 60.0973 50.15C62.3373 50.15 63.4573 49.56 63.4573 48.38C63.4573 47.82 63.1673 47.43 62.5873 47.21C62.0273 46.99 61.1173 46.78 59.8573 46.58C58.5373 46.38 57.4573 46.15 56.6173 45.89C55.7973 45.63 55.0773 45.18 54.4573 44.54C53.8573 43.88 53.5573 42.97 53.5573 41.81C53.5573 40.29 54.1873 39.08 55.4473 38.18C56.7273 37.26 58.4473 36.8 60.6073 36.8C61.7073 36.8 62.8073 36.93 63.9073 37.19C65.0073 37.43 65.9073 37.76 66.6073 38.18L65.1673 41.03C63.8073 40.23 62.2773 39.83 60.5773 39.83C59.4773 39.83 58.6373 40 58.0573 40.34C57.4973 40.66 57.2173 41.09 57.2173 41.63C57.2173 42.23 57.5173 42.66 58.1173 42.92C58.7373 43.16 59.6873 43.39 60.9673 43.61C62.2473 43.81 63.2973 44.04 64.1173 44.3C64.9373 44.56 65.6373 45 66.2173 45.62C66.8173 46.24 67.1173 47.12 67.1173 48.26C67.1173 49.76 66.4673 50.96 65.1673 51.86C63.8673 52.76 62.0973 53.21 59.8573 53.21ZM70.3467 36.98H74.0967V53H70.3467V36.98ZM72.2367 34.34C71.5567 34.34 70.9867 34.13 70.5267 33.71C70.0667 33.27 69.8367 32.73 69.8367 32.09C69.8367 31.45 70.0667 30.92 70.5267 30.5C70.9867 30.06 71.5567 29.84 72.2367 29.84C72.9167 29.84 73.4867 30.05 73.9467 30.47C74.4067 30.87 74.6367 31.38 74.6367 32C74.6367 32.66 74.4067 33.22 73.9467 33.68C73.5067 34.12 72.9367 34.34 72.2367 34.34ZM85.1386 36.8C87.4986 36.8 89.2986 37.37 90.5386 38.51C91.7986 39.63 92.4286 41.33 92.4286 43.61V53H88.8886V51.05C88.4286 51.75 87.7686 52.29 86.9086 52.67C86.0686 53.03 85.0486 53.21 83.8486 53.21C82.6486 53.21 81.5986 53.01 80.6986 52.61C79.7986 52.19 79.0986 51.62 78.5986 50.9C78.1186 50.16 77.8786 49.33 77.8786 48.41C77.8786 46.97 78.4086 45.82 79.4686 44.96C80.5486 44.08 82.2386 43.64 84.5386 43.64H88.6786V43.4C88.6786 42.28 88.3386 41.42 87.6586 40.82C86.9986 40.22 86.0086 39.92 84.6886 39.92C83.7886 39.92 82.8986 40.06 82.0186 40.34C81.1586 40.62 80.4286 41.01 79.8286 41.51L78.3586 38.78C79.1986 38.14 80.2086 37.65 81.3886 37.31C82.5686 36.97 83.8186 36.8 85.1386 36.8ZM84.6286 50.48C85.5686 50.48 86.3986 50.27 87.1186 49.85C87.8586 49.41 88.3786 48.79 88.6786 47.99V46.13H84.8086C82.6486 46.13 81.5686 46.84 81.5686 48.26C81.5686 48.94 81.8386 49.48 82.3786 49.88C82.9186 50.28 83.6686 50.48 84.6286 50.48ZM106.871 52.13C106.431 52.49 105.891 52.76 105.251 52.94C104.631 53.12 103.971 53.21 103.271 53.21C101.511 53.21 100.151 52.75 99.1912 51.83C98.2313 50.91 97.7513 49.57 97.7513 47.81V40.1H95.1113V37.1H97.7513V33.44H101.501V37.1H105.791V40.1H101.501V47.72C101.501 48.5 101.691 49.1 102.071 49.52C102.451 49.92 103.001 50.12 103.721 50.12C104.561 50.12 105.261 49.9 105.821 49.46L106.871 52.13ZM119.046 36.8C121.066 36.8 122.686 37.39 123.906 38.57C125.126 39.75 125.736 41.5 125.736 43.82V53H121.986V44.3C121.986 42.9 121.656 41.85 120.996 41.15C120.336 40.43 119.396 40.07 118.176 40.07C116.796 40.07 115.706 40.49 114.906 41.33C114.106 42.15 113.706 43.34 113.706 44.9V53H109.956V36.98H113.526V39.05C114.146 38.31 114.926 37.75 115.866 37.37C116.806 36.99 117.866 36.8 119.046 36.8ZM145.2 36.98L137.7 54.29C137 56.03 136.15 57.25 135.15 57.95C134.15 58.67 132.94 59.03 131.52 59.03C130.72 59.03 129.93 58.9 129.15 58.64C128.37 58.38 127.73 58.02 127.23 57.56L128.73 54.8C129.09 55.14 129.51 55.41 129.99 55.61C130.49 55.81 130.99 55.91 131.49 55.91C132.15 55.91 132.69 55.74 133.11 55.4C133.55 55.06 133.95 54.49 134.31 53.69L134.58 53.06L127.59 36.98H131.49L136.53 48.83L141.6 36.98H145.2ZM155.134 44.21L151.804 47.63V53H147.904V32H151.804V42.77L162.184 32H166.564L157.744 41.39L167.104 53H162.544L155.134 44.21ZM175.139 36.8C177.499 36.8 179.299 37.37 180.539 38.51C181.799 39.63 182.429 41.33 182.429 43.61V53H178.889V51.05C178.429 51.75 177.769 52.29 176.909 52.67C176.069 53.03 175.049 53.21 173.849 53.21C172.649 53.21 171.599 53.01 170.699 52.61C169.799 52.19 169.099 51.62 168.599 50.9C168.119 50.16 167.879 49.33 167.879 48.41C167.879 46.97 168.409 45.82 169.469 44.96C170.549 44.08 172.239 43.64 174.539 43.64H178.679V43.4C178.679 42.28 178.339 41.42 177.659 40.82C176.999 40.22 176.009 39.92 174.689 39.92C173.789 39.92 172.899 40.06 172.019 40.34C171.159 40.62 170.429 41.01 169.829 41.51L168.359 38.78C169.199 38.14 170.209 37.65 171.389 37.31C172.569 36.97 173.819 36.8 175.139 36.8ZM174.629 50.48C175.569 50.48 176.399 50.27 177.119 49.85C177.859 49.41 178.379 48.79 178.679 47.99V46.13H174.809C172.649 46.13 171.569 46.84 171.569 48.26C171.569 48.94 171.839 49.48 172.379 49.88C172.919 50.28 173.669 50.48 174.629 50.48ZM190.811 39.32C191.891 37.64 193.791 36.8 196.511 36.8V40.37C196.191 40.31 195.901 40.28 195.641 40.28C194.181 40.28 193.041 40.71 192.221 41.57C191.401 42.41 190.991 43.63 190.991 45.23V53H187.241V36.98H190.811V39.32ZM199.692 36.98H203.442V53H199.692V36.98ZM201.582 34.34C200.902 34.34 200.332 34.13 199.872 33.71C199.412 33.27 199.182 32.73 199.182 32.09C199.182 31.45 199.412 30.92 199.872 30.5C200.332 30.06 200.902 29.84 201.582 29.84C202.262 29.84 202.832 30.05 203.292 30.47C203.752 30.87 203.982 31.38 203.982 32C203.982 32.66 203.752 33.22 203.292 33.68C202.852 34.12 202.282 34.34 201.582 34.34ZM217.454 36.8C219.474 36.8 221.094 37.39 222.314 38.57C223.534 39.75 224.144 41.5 224.144 43.82V53H220.394V44.3C220.394 42.9 220.064 41.85 219.404 41.15C218.744 40.43 217.804 40.07 216.584 40.07C215.204 40.07 214.114 40.49 213.314 41.33C212.514 42.15 212.114 43.34 212.114 44.9V53H208.364V36.98H211.934V39.05C212.554 38.31 213.334 37.75 214.274 37.37C215.214 36.99 216.274 36.8 217.454 36.8ZM235.021 36.8C237.381 36.8 239.181 37.37 240.421 38.51C241.681 39.63 242.311 41.33 242.311 43.61V53H238.771V51.05C238.311 51.75 237.651 52.29 236.791 52.67C235.951 53.03 234.931 53.21 233.731 53.21C232.531 53.21 231.481 53.01 230.581 52.61C229.681 52.19 228.981 51.62 228.481 50.9C228.001 50.16 227.761 49.33 227.761 48.41C227.761 46.97 228.291 45.82 229.351 44.96C230.431 44.08 232.121 43.64 234.421 43.64H238.561V43.4C238.561 42.28 238.221 41.42 237.541 40.82C236.881 40.22 235.891 39.92 234.571 39.92C233.671 39.92 232.781 40.06 231.901 40.34C231.041 40.62 230.311 41.01 229.711 41.51L228.241 38.78C229.081 38.14 230.091 37.65 231.271 37.31C232.451 36.97 233.701 36.8 235.021 36.8ZM234.511 50.48C235.451 50.48 236.281 50.27 237.001 49.85C237.741 49.41 238.261 48.79 238.561 47.99V46.13H234.691C232.531 46.13 231.451 46.84 231.451 48.26C231.451 48.94 231.721 49.48 232.261 49.88C232.801 50.28 233.551 50.48 234.511 50.48Z" fill="#313741"/>
<path d="M123.678 64.532L120.096 74H118.89L115.902 66.242L112.914 74H111.708L108.144 64.532H109.368L112.338 72.578L115.38 64.532H116.478L119.502 72.578L122.508 64.532H123.678ZM133.583 69.662H125.663C125.735 70.646 126.113 71.444 126.797 72.056C127.481 72.656 128.345 72.956 129.389 72.956C129.977 72.956 130.517 72.854 131.009 72.65C131.501 72.434 131.927 72.122 132.287 71.714L133.007 72.542C132.587 73.046 132.059 73.43 131.423 73.694C130.799 73.958 130.109 74.09 129.353 74.09C128.381 74.09 127.517 73.886 126.761 73.478C126.017 73.058 125.435 72.482 125.015 71.75C124.595 71.018 124.385 70.19 124.385 69.266C124.385 68.342 124.583 67.514 124.979 66.782C125.387 66.05 125.939 65.48 126.635 65.072C127.343 64.664 128.135 64.46 129.011 64.46C129.887 64.46 130.673 64.664 131.369 65.072C132.065 65.48 132.611 66.05 133.007 66.782C133.403 67.502 133.601 68.33 133.601 69.266L133.583 69.662ZM129.011 65.558C128.099 65.558 127.331 65.852 126.707 66.44C126.095 67.016 125.747 67.772 125.663 68.708H132.377C132.293 67.772 131.939 67.016 131.315 66.44C130.703 65.852 129.935 65.558 129.011 65.558ZM141.08 64.46C141.968 64.46 142.772 64.664 143.492 65.072C144.212 65.468 144.776 66.032 145.184 66.764C145.592 67.496 145.796 68.33 145.796 69.266C145.796 70.202 145.592 71.036 145.184 71.768C144.776 72.5 144.212 73.07 143.492 73.478C142.772 73.886 141.968 74.09 141.08 74.09C140.288 74.09 139.574 73.922 138.938 73.586C138.314 73.25 137.81 72.764 137.426 72.128V74H136.202V60.644H137.48V66.332C137.876 65.72 138.38 65.258 138.992 64.946C139.616 64.622 140.312 64.46 141.08 64.46ZM140.99 72.956C141.65 72.956 142.25 72.806 142.79 72.506C143.33 72.194 143.75 71.756 144.05 71.192C144.362 70.628 144.518 69.986 144.518 69.266C144.518 68.546 144.362 67.904 144.05 67.34C143.75 66.776 143.33 66.344 142.79 66.044C142.25 65.732 141.65 65.576 140.99 65.576C140.318 65.576 139.712 65.732 139.172 66.044C138.644 66.344 138.224 66.776 137.912 67.34C137.612 67.904 137.462 68.546 137.462 69.266C137.462 69.986 137.612 70.628 137.912 71.192C138.224 71.756 138.644 72.194 139.172 72.506C139.712 72.806 140.318 72.956 140.99 72.956ZM161.752 60.644V74H160.528V72.128C160.144 72.764 159.634 73.25 158.998 73.586C158.374 73.922 157.666 74.09 156.874 74.09C155.986 74.09 155.182 73.886 154.462 73.478C153.742 73.07 153.178 72.5 152.77 71.768C152.362 71.036 152.158 70.202 152.158 69.266C152.158 68.33 152.362 67.496 152.77 66.764C153.178 66.032 153.742 65.468 154.462 65.072C155.182 64.664 155.986 64.46 156.874 64.46C157.642 64.46 158.332 64.622 158.944 64.946C159.568 65.258 160.078 65.72 160.474 66.332V60.644H161.752ZM156.982 72.956C157.642 72.956 158.236 72.806 158.764 72.506C159.304 72.194 159.724 71.756 160.024 71.192C160.336 70.628 160.492 69.986 160.492 69.266C160.492 68.546 160.336 67.904 160.024 67.34C159.724 66.776 159.304 66.344 158.764 66.044C158.236 65.732 157.642 65.576 156.982 65.576C156.31 65.576 155.704 65.732 155.164 66.044C154.636 66.344 154.216 66.776 153.904 67.34C153.604 67.904 153.454 68.546 153.454 69.266C153.454 69.986 153.604 70.628 153.904 71.192C154.216 71.756 154.636 72.194 155.164 72.506C155.704 72.806 156.31 72.956 156.982 72.956ZM173.555 69.662H165.635C165.707 70.646 166.085 71.444 166.769 72.056C167.453 72.656 168.317 72.956 169.361 72.956C169.949 72.956 170.489 72.854 170.981 72.65C171.473 72.434 171.899 72.122 172.259 71.714L172.979 72.542C172.559 73.046 172.031 73.43 171.395 73.694C170.771 73.958 170.081 74.09 169.325 74.09C168.353 74.09 167.489 73.886 166.733 73.478C165.989 73.058 165.407 72.482 164.987 71.75C164.567 71.018 164.357 70.19 164.357 69.266C164.357 68.342 164.555 67.514 164.951 66.782C165.359 66.05 165.911 65.48 166.607 65.072C167.315 64.664 168.107 64.46 168.983 64.46C169.859 64.46 170.645 64.664 171.341 65.072C172.037 65.48 172.583 66.05 172.979 66.782C173.375 67.502 173.573 68.33 173.573 69.266L173.555 69.662ZM168.983 65.558C168.071 65.558 167.303 65.852 166.679 66.44C166.067 67.016 165.719 67.772 165.635 68.708H172.349C172.265 67.772 171.911 67.016 171.287 66.44C170.675 65.852 169.907 65.558 168.983 65.558ZM183.955 64.532L179.743 74H178.429L174.235 64.532H175.567L179.113 72.596L182.695 64.532H183.955ZM193.735 69.662H185.815C185.887 70.646 186.265 71.444 186.949 72.056C187.633 72.656 188.497 72.956 189.541 72.956C190.129 72.956 190.669 72.854 191.161 72.65C191.653 72.434 192.079 72.122 192.439 71.714L193.159 72.542C192.739 73.046 192.211 73.43 191.575 73.694C190.951 73.958 190.261 74.09 189.505 74.09C188.533 74.09 187.669 73.886 186.913 73.478C186.169 73.058 185.587 72.482 185.167 71.75C184.747 71.018 184.537 70.19 184.537 69.266C184.537 68.342 184.735 67.514 185.131 66.782C185.539 66.05 186.091 65.48 186.787 65.072C187.495 64.664 188.287 64.46 189.163 64.46C190.039 64.46 190.825 64.664 191.521 65.072C192.217 65.48 192.763 66.05 193.159 66.782C193.555 67.502 193.753 68.33 193.753 69.266L193.735 69.662ZM189.163 65.558C188.251 65.558 187.483 65.852 186.859 66.44C186.247 67.016 185.899 67.772 185.815 68.708H192.529C192.445 67.772 192.091 67.016 191.467 66.44C190.855 65.852 190.087 65.558 189.163 65.558ZM196.354 60.644H197.632V74H196.354V60.644ZM205.058 74.09C204.146 74.09 203.324 73.886 202.592 73.478C201.86 73.058 201.284 72.482 200.864 71.75C200.444 71.018 200.234 70.19 200.234 69.266C200.234 68.342 200.444 67.514 200.864 66.782C201.284 66.05 201.86 65.48 202.592 65.072C203.324 64.664 204.146 64.46 205.058 64.46C205.97 64.46 206.792 64.664 207.524 65.072C208.256 65.48 208.826 66.05 209.234 66.782C209.654 67.514 209.864 68.342 209.864 69.266C209.864 70.19 209.654 71.018 209.234 71.75C208.826 72.482 208.256 73.058 207.524 73.478C206.792 73.886 205.97 74.09 205.058 74.09ZM205.058 72.956C205.73 72.956 206.33 72.806 206.858 72.506C207.398 72.194 207.818 71.756 208.118 71.192C208.418 70.628 208.568 69.986 208.568 69.266C208.568 68.546 208.418 67.904 208.118 67.34C207.818 66.776 207.398 66.344 206.858 66.044C206.33 65.732 205.73 65.576 205.058 65.576C204.386 65.576 203.78 65.732 203.24 66.044C202.712 66.344 202.292 66.776 201.98 67.34C201.68 67.904 201.53 68.546 201.53 69.266C201.53 69.986 201.68 70.628 201.98 71.192C202.292 71.756 202.712 72.194 203.24 72.506C203.78 72.806 204.386 72.956 205.058 72.956ZM217.351 64.46C218.239 64.46 219.043 64.664 219.763 65.072C220.483 65.468 221.047 66.032 221.455 66.764C221.863 67.496 222.067 68.33 222.067 69.266C222.067 70.214 221.863 71.054 221.455 71.786C221.047 72.518 220.483 73.088 219.763 73.496C219.055 73.892 218.251 74.09 217.351 74.09C216.583 74.09 215.887 73.934 215.263 73.622C214.651 73.298 214.147 72.83 213.751 72.218V77.492H212.473V64.532H213.697V66.404C214.081 65.78 214.585 65.3 215.209 64.964C215.845 64.628 216.559 64.46 217.351 64.46ZM217.261 72.956C217.921 72.956 218.521 72.806 219.061 72.506C219.601 72.194 220.021 71.756 220.321 71.192C220.633 70.628 220.789 69.986 220.789 69.266C220.789 68.546 220.633 67.91 220.321 67.358C220.021 66.794 219.601 66.356 219.061 66.044C218.521 65.732 217.921 65.576 217.261 65.576C216.589 65.576 215.983 65.732 215.443 66.044C214.915 66.356 214.495 66.794 214.183 67.358C213.883 67.91 213.733 68.546 213.733 69.266C213.733 69.986 213.883 70.628 214.183 71.192C214.495 71.756 214.915 72.194 215.443 72.506C215.983 72.806 216.589 72.956 217.261 72.956ZM232.917 69.662H224.997C225.069 70.646 225.447 71.444 226.131 72.056C226.815 72.656 227.679 72.956 228.723 72.956C229.311 72.956 229.851 72.854 230.343 72.65C230.835 72.434 231.261 72.122 231.621 71.714L232.341 72.542C231.921 73.046 231.393 73.43 230.757 73.694C230.133 73.958 229.443 74.09 228.687 74.09C227.715 74.09 226.851 73.886 226.095 73.478C225.351 73.058 224.769 72.482 224.349 71.75C223.929 71.018 223.719 70.19 223.719 69.266C223.719 68.342 223.917 67.514 224.313 66.782C224.721 66.05 225.273 65.48 225.969 65.072C226.677 64.664 227.469 64.46 228.345 64.46C229.221 64.46 230.007 64.664 230.703 65.072C231.399 65.48 231.945 66.05 232.341 66.782C232.737 67.502 232.935 68.33 232.935 69.266L232.917 69.662ZM228.345 65.558C227.433 65.558 226.665 65.852 226.041 66.44C225.429 67.016 225.081 67.772 224.997 68.708H231.711C231.627 67.772 231.273 67.016 230.649 66.44C230.037 65.852 229.269 65.558 228.345 65.558ZM236.76 66.386C237.06 65.75 237.504 65.27 238.092 64.946C238.692 64.622 239.43 64.46 240.306 64.46V65.702L240 65.684C239.004 65.684 238.224 65.99 237.66 66.602C237.096 67.214 236.814 68.072 236.814 69.176V74H235.536V64.532H236.76V66.386Z" fill="#22252C"/>
<path d="M277.278 49.5148C276.882 49.1119 276.184 49.0633 275.718 49.4063L268.561 54.6825C268.314 54.8647 268.172 55.1313 268.172 55.4119C268.172 55.6924 268.314 55.959 268.561 56.1407L275.718 61.4168C276.184 61.7599 276.882 61.7113 277.277 61.3089C277.674 60.9065 277.618 60.3022 277.153 59.9591L270.985 55.4119L277.153 50.8646C277.618 50.5215 277.674 49.9172 277.278 49.5148Z" fill="url(#paint0_linear)"/>
<path d="M298.439 54.6825L291.282 49.4063C290.816 49.0633 290.118 49.1119 289.723 49.5143C289.326 49.9172 289.382 50.5215 289.847 50.8646L296.015 55.4119L289.847 59.9591C289.382 60.3022 289.326 60.9065 289.723 61.3089C290.118 61.7113 290.816 61.7599 291.282 61.4168L298.439 56.1407C298.686 55.959 298.828 55.6924 298.828 55.4119C298.828 55.1313 298.686 54.8647 298.439 54.6825V54.6825Z" fill="url(#paint1_linear)"/>
<path d="M285.654 45.3731C285.056 45.2641 284.469 45.5954 284.343 46.1132L279.882 64.4476C279.756 64.9654 280.139 65.473 280.737 65.582C281.335 65.6911 281.921 65.3603 282.047 64.8425L286.508 46.5075C286.634 45.9903 286.252 45.4821 285.654 45.3731V45.3731Z" fill="url(#paint2_linear)"/>
<path d="M309.573 24.4198H257.427C253.327 24.4236 250.004 27.2999 250 30.8491V69.1632C250.004 72.7124 253.327 75.5882 257.427 75.5925H309.573C313.673 75.5882 316.996 72.7124 317 69.1632V30.8491C316.996 27.2999 313.673 24.4236 309.573 24.4198ZM257.427 26.3349H309.573C312.451 26.3376 314.785 28.3574 314.788 30.8491V37.8383H252.212V30.8491C252.215 28.3574 254.549 26.3376 257.427 26.3349ZM309.573 73.6774H257.427C254.549 73.6742 252.215 71.6549 252.212 69.1632V39.7534H314.788V69.1632C314.785 71.6549 312.451 73.6742 309.573 73.6774Z" fill="url(#paint3_linear)"/>
<path d="M268.889 35.1708H268.899C270.828 35.1692 272.392 33.8195 272.4 32.1502C272.403 30.4777 270.842 29.1178 268.91 29.1103H268.899C266.988 29.1354 265.453 30.482 265.451 32.1358C265.448 33.7901 266.978 35.1409 268.888 35.1703L268.889 35.1708ZM267.991 31.3497C268.232 31.1413 268.559 31.0249 268.899 31.0254H268.904C269.601 31.043 270.156 31.5378 270.155 32.1422C270.154 32.746 269.597 33.2397 268.899 33.2552H268.896C268.375 33.2536 267.906 32.9806 267.708 32.5632C267.51 32.1464 267.622 31.6671 267.991 31.3487V31.3497Z" fill="url(#paint4_linear)"/>
<path d="M258.133 35.142H258.144C260.069 35.1393 261.628 33.7869 261.626 32.1203C261.625 30.4536 260.064 29.1039 258.139 29.1039C256.214 29.1039 254.653 30.4536 254.651 32.1203C254.65 33.7869 256.208 35.1393 258.133 35.142ZM258.144 30.9971H258.148C258.848 31.0115 259.407 31.5074 259.406 32.1133C259.405 32.7198 258.845 33.2141 258.144 33.2269H258.14C257.44 33.2125 256.881 32.7166 256.882 32.1101C256.884 31.5036 257.444 31.0094 258.144 30.9971Z" fill="url(#paint5_linear)"/>
<path d="M279.645 35.2002H279.656C281.585 35.1997 283.149 33.8489 283.156 32.1796C283.16 30.5065 281.599 29.1466 279.666 29.1397H279.656C277.731 29.1477 276.175 30.4996 276.172 32.1652C276.169 33.8312 277.72 35.1869 279.645 35.2002ZM279.656 31.0548H279.659C280.366 31.0623 280.933 31.5603 280.932 32.1716C280.93 32.7829 280.361 33.2793 279.656 33.2851H279.651C278.945 33.2771 278.378 32.7791 278.379 32.1684C278.38 31.5571 278.95 31.0601 279.656 31.0548Z" fill="url(#paint6_linear)"/>
<defs>
<linearGradient id="paint0_linear" x1="272.857" y1="84.5658" x2="272.857" y2="15.9565" gradientUnits="userSpaceOnUse">
<stop offset="0.322" stop-color="#22252C"/>
<stop offset="0.466" stop-color="#22252C"/>
<stop offset="0.752" stop-color="#313741"/>
<stop offset="0.898" stop-color="#313741"/>
</linearGradient>
<linearGradient id="paint1_linear" x1="294.143" y1="84.5658" x2="294.143" y2="15.9565" gradientUnits="userSpaceOnUse">
<stop offset="0.322" stop-color="#22252C"/>
<stop offset="0.466" stop-color="#22252C"/>
<stop offset="0.752" stop-color="#313741"/>
<stop offset="0.898" stop-color="#313741"/>
</linearGradient>
<linearGradient id="paint2_linear" x1="283.195" y1="84.5658" x2="283.195" y2="15.9565" gradientUnits="userSpaceOnUse">
<stop offset="0.322" stop-color="#22252C"/>
<stop offset="0.466" stop-color="#22252C"/>
<stop offset="0.752" stop-color="#313741"/>
<stop offset="0.898" stop-color="#313741"/>
</linearGradient>
<linearGradient id="paint3_linear" x1="283.5" y1="84.5658" x2="283.5" y2="15.9565" gradientUnits="userSpaceOnUse">
<stop offset="0.322" stop-color="#22252C"/>
<stop offset="0.466" stop-color="#22252C"/>
<stop offset="0.752" stop-color="#313741"/>
<stop offset="0.898" stop-color="#313741"/>
</linearGradient>
<linearGradient id="paint4_linear" x1="268.9" y1="84.5658" x2="268.9" y2="15.9565" gradientUnits="userSpaceOnUse">
<stop offset="0.322" stop-color="#22252C"/>
<stop offset="0.466" stop-color="#22252C"/>
<stop offset="0.752" stop-color="#313741"/>
<stop offset="0.898" stop-color="#313741"/>
</linearGradient>
<linearGradient id="paint5_linear" x1="258.144" y1="84.5658" x2="258.144" y2="15.9565" gradientUnits="userSpaceOnUse">
<stop offset="0.322" stop-color="#22252C"/>
<stop offset="0.466" stop-color="#22252C"/>
<stop offset="0.752" stop-color="#313741"/>
<stop offset="0.898" stop-color="#313741"/>
</linearGradient>
<linearGradient id="paint6_linear" x1="279.655" y1="84.5658" x2="279.655" y2="15.9565" gradientUnits="userSpaceOnUse">
<stop offset="0.322" stop-color="#22252C"/>
<stop offset="0.466" stop-color="#22252C"/>
<stop offset="0.752" stop-color="#313741"/>
<stop offset="0.898" stop-color="#313741"/>
</linearGradient>
</defs>
</svg>
