<svg width="227" height="227" viewBox="0 0 227 227" fill="none" xmlns="http://www.w3.org/2000/svg">
<g filter="url(#filter0_d)">
<circle cx="113.5" cy="109.5" r="109.5" fill="#04F5C9"/>
</g>
<ellipse cx="113.5" cy="110" rx="98.5" ry="99" fill="#AAFFFF"/>
<g filter="url(#filter1_dd)">
<path d="M76.504 46.8H115.264C125.328 46.8 134.213 48.84 141.92 52.92C149.627 56.9093 155.611 62.5307 159.872 69.784C164.133 76.9467 166.264 85.152 166.264 94.4C166.264 103.648 164.133 111.899 159.872 119.152C155.611 126.315 149.627 131.936 141.92 136.016C134.213 140.005 125.328 142 115.264 142H76.504V46.8ZM114.72 133.296C123.061 133.296 130.36 131.664 136.616 128.4C142.872 125.045 147.723 120.467 151.168 114.664C154.613 108.771 156.336 102.016 156.336 94.4C156.336 86.784 154.613 80.0747 151.168 74.272C147.723 68.3787 142.872 63.8 136.616 60.536C130.36 57.1813 123.061 55.504 114.72 55.504H86.568V133.296H114.72Z" fill="#313741"/>
</g>
<g filter="url(#filter2_dd)">
<path d="M127.2 125.84L113.88 139.52V161H98.28V77H113.88V120.08L155.4 77H172.92L137.64 114.56L175.08 161H156.84L127.2 125.84Z" fill="#04F5C9"/>
</g>
<path d="M95.47 171.388L91.924 181H89.764L87.28 174.376L84.76 181H82.6L79.072 171.388H81.196L83.734 178.48L86.38 171.388H88.27L90.862 178.516L93.472 171.388H95.47ZM105.789 176.248C105.789 176.404 105.777 176.626 105.753 176.914H98.2113C98.3433 177.622 98.6853 178.186 99.2373 178.606C99.8013 179.014 100.497 179.218 101.325 179.218C102.381 179.218 103.251 178.87 103.935 178.174L105.141 179.56C104.709 180.076 104.163 180.466 103.503 180.73C102.843 180.994 102.099 181.126 101.271 181.126C100.215 181.126 99.2853 180.916 98.4813 180.496C97.6773 180.076 97.0533 179.494 96.6093 178.75C96.1773 177.994 95.9613 177.142 95.9613 176.194C95.9613 175.258 96.1713 174.418 96.5913 173.674C97.0233 172.918 97.6173 172.33 98.3733 171.91C99.1293 171.49 99.9813 171.28 100.929 171.28C101.865 171.28 102.699 171.49 103.431 171.91C104.175 172.318 104.751 172.9 105.159 173.656C105.579 174.4 105.789 175.264 105.789 176.248ZM100.929 173.08C100.209 173.08 99.5973 173.296 99.0933 173.728C98.6013 174.148 98.3013 174.712 98.1933 175.42H103.647C103.551 174.724 103.257 174.16 102.765 173.728C102.273 173.296 101.661 173.08 100.929 173.08ZM113.279 171.28C114.215 171.28 115.049 171.484 115.781 171.892C116.525 172.3 117.107 172.876 117.527 173.62C117.947 174.364 118.157 175.222 118.157 176.194C118.157 177.166 117.947 178.03 117.527 178.786C117.107 179.53 116.525 180.106 115.781 180.514C115.049 180.922 114.215 181.126 113.279 181.126C112.619 181.126 112.013 181.012 111.461 180.784C110.921 180.556 110.465 180.214 110.093 179.758V181H107.951V167.644H110.201V172.558C110.585 172.138 111.035 171.82 111.551 171.604C112.079 171.388 112.655 171.28 113.279 171.28ZM113.027 179.2C113.855 179.2 114.533 178.924 115.061 178.372C115.601 177.82 115.871 177.094 115.871 176.194C115.871 175.294 115.601 174.568 115.061 174.016C114.533 173.464 113.855 173.188 113.027 173.188C112.487 173.188 112.001 173.314 111.569 173.566C111.137 173.806 110.795 174.154 110.543 174.61C110.291 175.066 110.165 175.594 110.165 176.194C110.165 176.794 110.291 177.322 110.543 177.778C110.795 178.234 111.137 178.588 111.569 178.84C112.001 179.08 112.487 179.2 113.027 179.2ZM120.506 168.4H126.014C127.358 168.4 128.552 168.664 129.596 169.192C130.64 169.708 131.45 170.446 132.026 171.406C132.602 172.354 132.89 173.452 132.89 174.7C132.89 175.948 132.602 177.052 132.026 178.012C131.45 178.96 130.64 179.698 129.596 180.226C128.552 180.742 127.358 181 126.014 181H120.506V168.4ZM125.906 179.02C126.83 179.02 127.64 178.846 128.336 178.498C129.044 178.138 129.584 177.634 129.956 176.986C130.34 176.326 130.532 175.564 130.532 174.7C130.532 173.836 130.34 173.08 129.956 172.432C129.584 171.772 129.044 171.268 128.336 170.92C127.64 170.56 126.83 170.38 125.906 170.38H122.846V179.02H125.906ZM144.198 176.248C144.198 176.404 144.186 176.626 144.162 176.914H136.62C136.752 177.622 137.094 178.186 137.646 178.606C138.21 179.014 138.906 179.218 139.734 179.218C140.79 179.218 141.66 178.87 142.344 178.174L143.55 179.56C143.118 180.076 142.572 180.466 141.912 180.73C141.252 180.994 140.508 181.126 139.68 181.126C138.624 181.126 137.694 180.916 136.89 180.496C136.086 180.076 135.462 179.494 135.018 178.75C134.586 177.994 134.37 177.142 134.37 176.194C134.37 175.258 134.58 174.418 135 173.674C135.432 172.918 136.026 172.33 136.782 171.91C137.538 171.49 138.39 171.28 139.338 171.28C140.274 171.28 141.108 171.49 141.84 171.91C142.584 172.318 143.16 172.9 143.568 173.656C143.988 174.4 144.198 175.264 144.198 176.248ZM139.338 173.08C138.618 173.08 138.006 173.296 137.502 173.728C137.01 174.148 136.71 174.712 136.602 175.42H142.056C141.96 174.724 141.666 174.16 141.174 173.728C140.682 173.296 140.07 173.08 139.338 173.08ZM155.183 171.388L151.061 181H148.739L144.617 171.388H146.957L149.945 178.516L153.023 171.388H155.183Z" fill="#313741"/>
<defs>
<filter id="filter0_d" x="0" y="0" width="227" height="227" filterUnits="userSpaceOnUse" color-interpolation-filters="sRGB">
<feFlood flood-opacity="0" result="BackgroundImageFix"/>
<feColorMatrix in="SourceAlpha" type="matrix" values="0 0 0 0 0 0 0 0 0 0 0 0 0 0 0 0 0 0 127 0"/>
<feOffset dy="4"/>
<feGaussianBlur stdDeviation="2"/>
<feColorMatrix type="matrix" values="0 0 0 0 0 0 0 0 0 0 0 0 0 0 0 0 0 0 0.25 0"/>
<feBlend mode="normal" in2="BackgroundImageFix" result="effect1_dropShadow"/>
<feBlend mode="normal" in="SourceGraphic" in2="effect1_dropShadow" result="shape"/>
</filter>
<filter id="filter1_dd" x="72.504" y="46.8" width="97.76" height="103.2" filterUnits="userSpaceOnUse" color-interpolation-filters="sRGB">
<feFlood flood-opacity="0" result="BackgroundImageFix"/>
<feColorMatrix in="SourceAlpha" type="matrix" values="0 0 0 0 0 0 0 0 0 0 0 0 0 0 0 0 0 0 127 0"/>
<feOffset dy="4"/>
<feGaussianBlur stdDeviation="2"/>
<feColorMatrix type="matrix" values="0 0 0 0 0 0 0 0 0 0 0 0 0 0 0 0 0 0 0.25 0"/>
<feBlend mode="normal" in2="BackgroundImageFix" result="effect1_dropShadow"/>
<feColorMatrix in="SourceAlpha" type="matrix" values="0 0 0 0 0 0 0 0 0 0 0 0 0 0 0 0 0 0 127 0"/>
<feOffset dy="4"/>
<feGaussianBlur stdDeviation="2"/>
<feColorMatrix type="matrix" values="0 0 0 0 0 0 0 0 0 0 0 0 0 0 0 0 0 0 0.25 0"/>
<feBlend mode="normal" in2="effect1_dropShadow" result="effect2_dropShadow"/>
<feBlend mode="normal" in="SourceGraphic" in2="effect2_dropShadow" result="shape"/>
</filter>
<filter id="filter2_dd" x="94.28" y="77" width="84.8" height="92" filterUnits="userSpaceOnUse" color-interpolation-filters="sRGB">
<feFlood flood-opacity="0" result="BackgroundImageFix"/>
<feColorMatrix in="SourceAlpha" type="matrix" values="0 0 0 0 0 0 0 0 0 0 0 0 0 0 0 0 0 0 127 0"/>
<feOffset dy="4"/>
<feGaussianBlur stdDeviation="2"/>
<feColorMatrix type="matrix" values="0 0 0 0 0 0 0 0 0 0 0 0 0 0 0 0 0 0 0.25 0"/>
<feBlend mode="normal" in2="BackgroundImageFix" result="effect1_dropShadow"/>
<feColorMatrix in="SourceAlpha" type="matrix" values="0 0 0 0 0 0 0 0 0 0 0 0 0 0 0 0 0 0 127 0"/>
<feOffset dy="4"/>
<feGaussianBlur stdDeviation="2"/>
<feColorMatrix type="matrix" values="0 0 0 0 0 0 0 0 0 0 0 0 0 0 0 0 0 0 0.25 0"/>
<feBlend mode="normal" in2="effect1_dropShadow" result="effect2_dropShadow"/>
<feBlend mode="normal" in="SourceGraphic" in2="effect2_dropShadow" result="shape"/>
</filter>
</defs>
</svg>
