<svg width="227" height="227" viewBox="0 0 227 227" fill="none" xmlns="http://www.w3.org/2000/svg">
<g filter="url(#filter0_d)">
<circle cx="113.5" cy="109.5" r="109.5" fill="#04F5C9"/>
</g>
<circle cx="114" cy="110" r="99" fill="#AAFFFF"/>
<path d="M91.8633 105.312V67.0625C91.8633 67.0625 100.695 67.0625 118.359 67.0625C123.273 67.0625 127.479 68.9219 130.977 72.6406C134.518 76.3594 136.289 80.8307 136.289 86.0547C136.289 91.4557 134.54 96.0156 131.043 99.7344C127.546 103.453 123.318 105.312 118.359 105.312H91.8633ZM96.6445 100.531H118.359C121.945 100.531 125 99.1367 127.523 96.3477C130.091 93.5586 131.375 90.1276 131.375 86.0547C131.375 82.1589 130.091 78.8164 127.523 76.0273C125 73.2383 121.945 71.8438 118.359 71.8438H96.6445V100.531ZM87.082 110.094H118.359C124.646 110.094 130.025 107.77 134.496 103.121C138.967 98.4284 141.203 92.7396 141.203 86.0547C141.203 79.5026 138.945 73.9023 134.43 69.2539C129.958 64.6055 124.602 62.2812 118.359 62.2812H87.082V110.094ZM82.3008 114.875V57.5H118.359C125.93 57.5 132.438 60.3112 137.883 65.9336C143.372 71.5117 146.117 78.2188 146.117 86.0547C146.117 94.0677 143.395 100.885 137.949 106.508C132.504 112.086 125.974 114.875 118.359 114.875H82.3008ZM77.5195 119.656H118.359C124.203 119.656 129.626 118.173 134.629 115.207C139.632 112.241 143.616 108.168 146.582 102.988C149.548 97.8086 151.031 92.1641 151.031 86.0547C151.031 80.0781 149.548 74.5221 146.582 69.3867C143.616 64.2513 139.609 60.2005 134.562 57.2344C129.56 54.224 124.159 52.7188 118.359 52.7188H77.5195V119.656ZM72.7383 124.438V47.9375H118.359C125.044 47.9375 131.264 49.6419 137.02 53.0508C142.819 56.4596 147.423 61.1081 150.832 66.9961C154.241 72.8398 155.945 79.1927 155.945 86.0547C155.945 93.0052 154.241 99.4466 150.832 105.379C147.423 111.267 142.819 115.915 137.02 119.324C131.264 122.733 125.044 124.438 118.359 124.438H72.7383ZM67.957 129.219H118.359C125.93 129.219 132.969 127.315 139.477 123.508C145.984 119.656 151.164 114.41 155.016 107.77C158.911 101.129 160.859 93.8906 160.859 86.0547C160.859 78.3516 158.911 71.2018 155.016 64.6055C151.164 57.9648 145.962 52.7409 139.41 48.9336C132.902 45.082 125.885 43.1562 118.359 43.1562H67.957V129.219ZM118.359 134H63.1758V38.375H118.359C126.771 38.375 134.607 40.5221 141.867 44.8164C149.172 49.0664 154.971 54.8659 159.266 62.2148C163.604 69.5195 165.773 77.4661 165.773 86.0547C165.773 92.5625 164.49 98.7826 161.922 104.715C159.398 110.647 155.99 115.76 151.695 120.055C147.445 124.305 142.398 127.691 136.555 130.215C130.711 132.738 124.646 134 118.359 134Z" fill="#313741"/>
<path d="M134.2 127.84L120.88 141.52V163H105.28V79H120.88V122.08L162.4 79H179.92L144.64 116.56L182.08 163H163.84L134.2 127.84Z" fill="#22252C"/>
<path d="M93.47 176.388L89.924 186H87.764L85.28 179.376L82.76 186H80.6L77.072 176.388H79.196L81.734 183.48L84.38 176.388H86.27L88.862 183.516L91.472 176.388H93.47ZM103.789 181.248C103.789 181.404 103.777 181.626 103.753 181.914H96.2113C96.3433 182.622 96.6853 183.186 97.2373 183.606C97.8013 184.014 98.4973 184.218 99.3253 184.218C100.381 184.218 101.251 183.87 101.935 183.174L103.141 184.56C102.709 185.076 102.163 185.466 101.503 185.73C100.843 185.994 100.099 186.126 99.2713 186.126C98.2153 186.126 97.2853 185.916 96.4813 185.496C95.6773 185.076 95.0533 184.494 94.6093 183.75C94.1773 182.994 93.9613 182.142 93.9613 181.194C93.9613 180.258 94.1713 179.418 94.5913 178.674C95.0233 177.918 95.6173 177.33 96.3733 176.91C97.1293 176.49 97.9813 176.28 98.9293 176.28C99.8653 176.28 100.699 176.49 101.431 176.91C102.175 177.318 102.751 177.9 103.159 178.656C103.579 179.4 103.789 180.264 103.789 181.248ZM98.9293 178.08C98.2093 178.08 97.5973 178.296 97.0933 178.728C96.6013 179.148 96.3013 179.712 96.1933 180.42H101.647C101.551 179.724 101.257 179.16 100.765 178.728C100.273 178.296 99.6613 178.08 98.9293 178.08ZM111.279 176.28C112.215 176.28 113.049 176.484 113.781 176.892C114.525 177.3 115.107 177.876 115.527 178.62C115.947 179.364 116.157 180.222 116.157 181.194C116.157 182.166 115.947 183.03 115.527 183.786C115.107 184.53 114.525 185.106 113.781 185.514C113.049 185.922 112.215 186.126 111.279 186.126C110.619 186.126 110.013 186.012 109.461 185.784C108.921 185.556 108.465 185.214 108.093 184.758V186H105.951V172.644H108.201V177.558C108.585 177.138 109.035 176.82 109.551 176.604C110.079 176.388 110.655 176.28 111.279 176.28ZM111.027 184.2C111.855 184.2 112.533 183.924 113.061 183.372C113.601 182.82 113.871 182.094 113.871 181.194C113.871 180.294 113.601 179.568 113.061 179.016C112.533 178.464 111.855 178.188 111.027 178.188C110.487 178.188 110.001 178.314 109.569 178.566C109.137 178.806 108.795 179.154 108.543 179.61C108.291 180.066 108.165 180.594 108.165 181.194C108.165 181.794 108.291 182.322 108.543 182.778C108.795 183.234 109.137 183.588 109.569 183.84C110.001 184.08 110.487 184.2 111.027 184.2ZM118.506 173.4H124.014C125.358 173.4 126.552 173.664 127.596 174.192C128.64 174.708 129.45 175.446 130.026 176.406C130.602 177.354 130.89 178.452 130.89 179.7C130.89 180.948 130.602 182.052 130.026 183.012C129.45 183.96 128.64 184.698 127.596 185.226C126.552 185.742 125.358 186 124.014 186H118.506V173.4ZM123.906 184.02C124.83 184.02 125.64 183.846 126.336 183.498C127.044 183.138 127.584 182.634 127.956 181.986C128.34 181.326 128.532 180.564 128.532 179.7C128.532 178.836 128.34 178.08 127.956 177.432C127.584 176.772 127.044 176.268 126.336 175.92C125.64 175.56 124.83 175.38 123.906 175.38H120.846V184.02H123.906ZM142.198 181.248C142.198 181.404 142.186 181.626 142.162 181.914H134.62C134.752 182.622 135.094 183.186 135.646 183.606C136.21 184.014 136.906 184.218 137.734 184.218C138.79 184.218 139.66 183.87 140.344 183.174L141.55 184.56C141.118 185.076 140.572 185.466 139.912 185.73C139.252 185.994 138.508 186.126 137.68 186.126C136.624 186.126 135.694 185.916 134.89 185.496C134.086 185.076 133.462 184.494 133.018 183.75C132.586 182.994 132.37 182.142 132.37 181.194C132.37 180.258 132.58 179.418 133 178.674C133.432 177.918 134.026 177.33 134.782 176.91C135.538 176.49 136.39 176.28 137.338 176.28C138.274 176.28 139.108 176.49 139.84 176.91C140.584 177.318 141.16 177.9 141.568 178.656C141.988 179.4 142.198 180.264 142.198 181.248ZM137.338 178.08C136.618 178.08 136.006 178.296 135.502 178.728C135.01 179.148 134.71 179.712 134.602 180.42H140.056C139.96 179.724 139.666 179.16 139.174 178.728C138.682 178.296 138.07 178.08 137.338 178.08ZM153.183 176.388L149.061 186H146.739L142.617 176.388H144.957L147.945 183.516L151.023 176.388H153.183Z" fill="#22252C"/>
<defs>
<filter id="filter0_d" x="0" y="0" width="227" height="227" filterUnits="userSpaceOnUse" color-interpolation-filters="sRGB">
<feFlood flood-opacity="0" result="BackgroundImageFix"/>
<feColorMatrix in="SourceAlpha" type="matrix" values="0 0 0 0 0 0 0 0 0 0 0 0 0 0 0 0 0 0 127 0"/>
<feOffset dy="4"/>
<feGaussianBlur stdDeviation="2"/>
<feColorMatrix type="matrix" values="0 0 0 0 0 0 0 0 0 0 0 0 0 0 0 0 0 0 0.25 0"/>
<feBlend mode="normal" in2="BackgroundImageFix" result="effect1_dropShadow"/>
<feBlend mode="normal" in="SourceGraphic" in2="effect1_dropShadow" result="shape"/>
</filter>
</defs>
</svg>
