<svg width="227" height="227" viewBox="0 0 227 227" fill="none" xmlns="http://www.w3.org/2000/svg">
<g filter="url(#filter0_d)">
<circle cx="113.5" cy="109.5" r="109.5" fill="#04F5C9"/>
</g>
<ellipse cx="113.5" cy="110" rx="98.5" ry="99" fill="#AAFFFF"/>
<path d="M67.504 43.8H106.264C116.328 43.8 125.213 45.84 132.92 49.92C140.627 53.9093 146.611 59.5307 150.872 66.784C155.133 73.9467 157.264 82.152 157.264 91.4C157.264 100.648 155.133 108.899 150.872 116.152C146.611 123.315 140.627 128.936 132.92 133.016C125.213 137.005 116.328 139 106.264 139H67.504V43.8ZM105.72 130.296C114.061 130.296 121.36 128.664 127.616 125.4C133.872 122.045 138.723 117.467 142.168 111.664C145.613 105.771 147.336 99.016 147.336 91.4C147.336 83.784 145.613 77.0747 142.168 71.272C138.723 65.3787 133.872 60.8 127.616 57.536C121.36 54.1813 114.061 52.504 105.72 52.504H77.568V130.296H105.72Z" fill="#313741"/>
<path d="M120.72 118.52L103.56 135.92V158H94.68V74H103.56V124.76L152.88 74H163.08L126.72 112.04L165.6 158H155.04L120.72 118.52Z" fill="#22252C"/>
<path d="M91.47 169.388L87.924 179H85.764L83.28 172.376L80.76 179H78.6L75.072 169.388H77.196L79.734 176.48L82.38 169.388H84.27L86.862 176.516L89.472 169.388H91.47ZM101.789 174.248C101.789 174.404 101.777 174.626 101.753 174.914H94.2113C94.3433 175.622 94.6853 176.186 95.2373 176.606C95.8013 177.014 96.4973 177.218 97.3253 177.218C98.3813 177.218 99.2513 176.87 99.9353 176.174L101.141 177.56C100.709 178.076 100.163 178.466 99.5033 178.73C98.8433 178.994 98.0993 179.126 97.2713 179.126C96.2153 179.126 95.2853 178.916 94.4813 178.496C93.6773 178.076 93.0533 177.494 92.6093 176.75C92.1773 175.994 91.9613 175.142 91.9613 174.194C91.9613 173.258 92.1713 172.418 92.5913 171.674C93.0233 170.918 93.6173 170.33 94.3733 169.91C95.1293 169.49 95.9813 169.28 96.9293 169.28C97.8653 169.28 98.6993 169.49 99.4313 169.91C100.175 170.318 100.751 170.9 101.159 171.656C101.579 172.4 101.789 173.264 101.789 174.248ZM96.9293 171.08C96.2093 171.08 95.5973 171.296 95.0933 171.728C94.6013 172.148 94.3013 172.712 94.1933 173.42H99.6473C99.5513 172.724 99.2573 172.16 98.7653 171.728C98.2733 171.296 97.6613 171.08 96.9293 171.08ZM109.279 169.28C110.215 169.28 111.049 169.484 111.781 169.892C112.525 170.3 113.107 170.876 113.527 171.62C113.947 172.364 114.157 173.222 114.157 174.194C114.157 175.166 113.947 176.03 113.527 176.786C113.107 177.53 112.525 178.106 111.781 178.514C111.049 178.922 110.215 179.126 109.279 179.126C108.619 179.126 108.013 179.012 107.461 178.784C106.921 178.556 106.465 178.214 106.093 177.758V179H103.951V165.644H106.201V170.558C106.585 170.138 107.035 169.82 107.551 169.604C108.079 169.388 108.655 169.28 109.279 169.28ZM109.027 177.2C109.855 177.2 110.533 176.924 111.061 176.372C111.601 175.82 111.871 175.094 111.871 174.194C111.871 173.294 111.601 172.568 111.061 172.016C110.533 171.464 109.855 171.188 109.027 171.188C108.487 171.188 108.001 171.314 107.569 171.566C107.137 171.806 106.795 172.154 106.543 172.61C106.291 173.066 106.165 173.594 106.165 174.194C106.165 174.794 106.291 175.322 106.543 175.778C106.795 176.234 107.137 176.588 107.569 176.84C108.001 177.08 108.487 177.2 109.027 177.2ZM116.506 166.4H122.014C123.358 166.4 124.552 166.664 125.596 167.192C126.64 167.708 127.45 168.446 128.026 169.406C128.602 170.354 128.89 171.452 128.89 172.7C128.89 173.948 128.602 175.052 128.026 176.012C127.45 176.96 126.64 177.698 125.596 178.226C124.552 178.742 123.358 179 122.014 179H116.506V166.4ZM121.906 177.02C122.83 177.02 123.64 176.846 124.336 176.498C125.044 176.138 125.584 175.634 125.956 174.986C126.34 174.326 126.532 173.564 126.532 172.7C126.532 171.836 126.34 171.08 125.956 170.432C125.584 169.772 125.044 169.268 124.336 168.92C123.64 168.56 122.83 168.38 121.906 168.38H118.846V177.02H121.906ZM140.198 174.248C140.198 174.404 140.186 174.626 140.162 174.914H132.62C132.752 175.622 133.094 176.186 133.646 176.606C134.21 177.014 134.906 177.218 135.734 177.218C136.79 177.218 137.66 176.87 138.344 176.174L139.55 177.56C139.118 178.076 138.572 178.466 137.912 178.73C137.252 178.994 136.508 179.126 135.68 179.126C134.624 179.126 133.694 178.916 132.89 178.496C132.086 178.076 131.462 177.494 131.018 176.75C130.586 175.994 130.37 175.142 130.37 174.194C130.37 173.258 130.58 172.418 131 171.674C131.432 170.918 132.026 170.33 132.782 169.91C133.538 169.49 134.39 169.28 135.338 169.28C136.274 169.28 137.108 169.49 137.84 169.91C138.584 170.318 139.16 170.9 139.568 171.656C139.988 172.4 140.198 173.264 140.198 174.248ZM135.338 171.08C134.618 171.08 134.006 171.296 133.502 171.728C133.01 172.148 132.71 172.712 132.602 173.42H138.056C137.96 172.724 137.666 172.16 137.174 171.728C136.682 171.296 136.07 171.08 135.338 171.08ZM151.183 169.388L147.061 179H144.739L140.617 169.388H142.957L145.945 176.516L149.023 169.388H151.183Z" fill="#22252C"/>
<defs>
<filter id="filter0_d" x="0" y="0" width="227" height="227" filterUnits="userSpaceOnUse" color-interpolation-filters="sRGB">
<feFlood flood-opacity="0" result="BackgroundImageFix"/>
<feColorMatrix in="SourceAlpha" type="matrix" values="0 0 0 0 0 0 0 0 0 0 0 0 0 0 0 0 0 0 127 0"/>
<feOffset dy="4"/>
<feGaussianBlur stdDeviation="2"/>
<feColorMatrix type="matrix" values="0 0 0 0 0 0 0 0 0 0 0 0 0 0 0 0 0 0 0.25 0"/>
<feBlend mode="normal" in2="BackgroundImageFix" result="effect1_dropShadow"/>
<feBlend mode="normal" in="SourceGraphic" in2="effect1_dropShadow" result="shape"/>
</filter>
</defs>
</svg>
