<svg width="383" height="230" viewBox="0 0 383 230" fill="none" xmlns="http://www.w3.org/2000/svg">
<g filter="url(#filter0_dd)">
<path d="M26.25 47H100C118.5 47 134.917 50.6667 149.25 58C163.583 65.3333 174.667 75.6667 182.5 89C190.5 102.167 194.5 117.333 194.5 134.5C194.5 151.667 190.5 166.917 182.5 180.25C174.667 193.417 163.583 203.667 149.25 211C134.917 218.333 118.5 222 100 222H26.25V47ZM98.5 200.25C112.667 200.25 125.083 197.5 135.75 192C146.583 186.5 154.917 178.833 160.75 169C166.583 159 169.5 147.5 169.5 134.5C169.5 121.5 166.583 110.083 160.75 100.25C154.917 90.25 146.583 82.5 135.75 77C125.083 71.5 112.667 68.75 98.5 68.75H51.25V200.25H98.5Z" fill="#AAFFFF"/>
</g>
<g filter="url(#filter1_dd)">
<path d="M78.3 145.9L65.5 158.9V177H55.5V107H65.5V146.1L103.5 107H114.9L85 138.5L116.8 177H105.1L78.3 145.9ZM144.005 123.5C151.339 123.5 156.939 125.3 160.805 128.9C164.739 132.5 166.705 137.867 166.705 145V177H157.605V170C156.005 172.467 153.705 174.367 150.705 175.7C147.772 176.967 144.272 177.6 140.205 177.6C134.272 177.6 129.505 176.167 125.905 173.3C122.372 170.433 120.605 166.667 120.605 162C120.605 157.333 122.305 153.6 125.705 150.8C129.105 147.933 134.505 146.5 141.905 146.5H157.105V144.6C157.105 140.467 155.905 137.3 153.505 135.1C151.105 132.9 147.572 131.8 142.905 131.8C139.772 131.8 136.705 132.333 133.705 133.4C130.705 134.4 128.172 135.767 126.105 137.5L122.105 130.3C124.839 128.1 128.105 126.433 131.905 125.3C135.705 124.1 139.739 123.5 144.005 123.5ZM141.805 170.2C145.472 170.2 148.639 169.4 151.305 167.8C153.972 166.133 155.905 163.8 157.105 160.8V153.4H142.305C134.172 153.4 130.105 156.133 130.105 161.6C130.105 164.267 131.139 166.367 133.205 167.9C135.272 169.433 138.139 170.2 141.805 170.2ZM193.671 132.9C195.338 129.833 197.804 127.5 201.071 125.9C204.338 124.3 208.304 123.5 212.971 123.5V132.8C212.438 132.733 211.704 132.7 210.771 132.7C205.571 132.7 201.471 134.267 198.471 137.4C195.538 140.467 194.071 144.867 194.071 150.6V177H184.471V124H193.671V132.9ZM224.803 124H234.403V177H224.803V124ZM229.603 113.8C227.736 113.8 226.17 113.2 224.903 112C223.703 110.8 223.103 109.333 223.103 107.6C223.103 105.867 223.703 104.4 224.903 103.2C226.17 101.933 227.736 101.3 229.603 101.3C231.47 101.3 233.003 101.9 234.203 103.1C235.47 104.233 236.103 105.667 236.103 107.4C236.103 109.2 235.47 110.733 234.203 112C233.003 113.2 231.47 113.8 229.603 113.8ZM281.033 123.5C287.766 123.5 293.099 125.467 297.033 129.4C301.033 133.267 303.033 138.967 303.033 146.5V177H293.433V147.6C293.433 142.467 292.199 138.6 289.733 136C287.266 133.4 283.733 132.1 279.133 132.1C273.933 132.1 269.833 133.633 266.833 136.7C263.833 139.7 262.333 144.033 262.333 149.7V177H252.733V124H261.933V132C263.866 129.267 266.466 127.167 269.733 125.7C273.066 124.233 276.833 123.5 281.033 123.5ZM340.099 123.5C347.433 123.5 353.033 125.3 356.899 128.9C360.833 132.5 362.799 137.867 362.799 145V177H353.699V170C352.099 172.467 349.799 174.367 346.799 175.7C343.866 176.967 340.366 177.6 336.299 177.6C330.366 177.6 325.599 176.167 321.999 173.3C318.466 170.433 316.699 166.667 316.699 162C316.699 157.333 318.399 153.6 321.799 150.8C325.199 147.933 330.599 146.5 337.999 146.5H353.199V144.6C353.199 140.467 351.999 137.3 349.599 135.1C347.199 132.9 343.666 131.8 338.999 131.8C335.866 131.8 332.799 132.333 329.799 133.4C326.799 134.4 324.266 135.767 322.199 137.5L318.199 130.3C320.933 128.1 324.199 126.433 327.999 125.3C331.799 124.1 335.833 123.5 340.099 123.5ZM337.899 170.2C341.566 170.2 344.733 169.4 347.399 167.8C350.066 166.133 351.999 163.8 353.199 160.8V153.4H338.399C330.266 153.4 326.199 156.133 326.199 161.6C326.199 164.267 327.233 166.367 329.299 167.9C331.366 169.433 334.233 170.2 337.899 170.2Z" fill="white"/>
</g>
<path d="M76.744 185.516L72.388 197H71.354L67.482 187.034L63.588 197H62.576L58.22 185.516H59.276L63.104 195.768L67.02 185.516H67.966L71.86 195.746L75.732 185.516H76.744ZM88.6824 191.522H78.8044C78.8338 192.417 79.0611 193.216 79.4864 193.92C79.9118 194.609 80.4838 195.145 81.2024 195.526C81.9358 195.907 82.7571 196.098 83.6664 196.098C84.4144 196.098 85.1038 195.966 85.7344 195.702C86.3798 195.423 86.9151 195.02 87.3404 194.492L87.9784 195.218C87.4798 195.819 86.8491 196.281 86.0864 196.604C85.3384 196.927 84.5244 197.088 83.6444 197.088C82.5004 197.088 81.4811 196.839 80.5864 196.34C79.6918 195.841 78.9878 195.152 78.4744 194.272C77.9758 193.392 77.7264 192.387 77.7264 191.258C77.7264 190.143 77.9611 189.146 78.4304 188.266C78.9144 187.371 79.5744 186.675 80.4104 186.176C81.2464 185.677 82.1851 185.428 83.2264 185.428C84.2678 185.428 85.1991 185.677 86.0204 186.176C86.8564 186.66 87.5091 187.342 87.9784 188.222C88.4624 189.102 88.7044 190.099 88.7044 191.214L88.6824 191.522ZM83.2264 186.396C82.4198 186.396 81.6938 186.579 81.0484 186.946C80.4031 187.298 79.8824 187.804 79.4864 188.464C79.1051 189.109 78.8851 189.843 78.8264 190.664H87.6264C87.5824 189.843 87.3624 189.109 86.9664 188.464C86.5704 187.819 86.0498 187.313 85.4044 186.946C84.7591 186.579 84.0331 186.396 83.2264 186.396ZM97.8714 185.428C98.9421 185.428 99.9101 185.677 100.775 186.176C101.641 186.66 102.315 187.349 102.799 188.244C103.298 189.124 103.547 190.129 103.547 191.258C103.547 192.387 103.298 193.392 102.799 194.272C102.315 195.152 101.641 195.841 100.775 196.34C99.9101 196.839 98.9421 197.088 97.8714 197.088C96.8447 197.088 95.9134 196.846 95.0774 196.362C94.2561 195.863 93.6181 195.174 93.1634 194.294V197H92.1074V180.676H93.2074V188.134C93.6621 187.283 94.3001 186.623 95.1214 186.154C95.9427 185.67 96.8594 185.428 97.8714 185.428ZM97.8054 196.098C98.6854 196.098 99.4774 195.893 100.181 195.482C100.885 195.071 101.435 194.499 101.831 193.766C102.242 193.033 102.447 192.197 102.447 191.258C102.447 190.319 102.242 189.483 101.831 188.75C101.435 188.017 100.885 187.445 100.181 187.034C99.4774 186.623 98.6854 186.418 97.8054 186.418C96.9254 186.418 96.1334 186.623 95.4294 187.034C94.7401 187.445 94.1901 188.017 93.7794 188.75C93.3834 189.483 93.1854 190.319 93.1854 191.258C93.1854 192.197 93.3834 193.033 93.7794 193.766C94.1901 194.499 94.7401 195.071 95.4294 195.482C96.1334 195.893 96.9254 196.098 97.8054 196.098ZM107.305 181.6H113.399C114.998 181.6 116.413 181.93 117.645 182.59C118.892 183.25 119.86 184.167 120.549 185.34C121.238 186.499 121.583 187.819 121.583 189.3C121.583 190.781 121.238 192.109 120.549 193.282C119.86 194.441 118.892 195.35 117.645 196.01C116.413 196.67 114.998 197 113.399 197H107.305V181.6ZM113.311 195.988C114.734 195.988 115.988 195.709 117.073 195.152C118.158 194.58 118.994 193.788 119.581 192.776C120.168 191.764 120.461 190.605 120.461 189.3C120.461 187.995 120.168 186.836 119.581 185.824C118.994 184.812 118.158 184.027 117.073 183.47C115.988 182.898 114.734 182.612 113.311 182.612H108.427V195.988H113.311ZM134.831 191.522H124.953C124.982 192.417 125.21 193.216 125.635 193.92C126.06 194.609 126.632 195.145 127.351 195.526C128.084 195.907 128.906 196.098 129.815 196.098C130.563 196.098 131.252 195.966 131.883 195.702C132.528 195.423 133.064 195.02 133.489 194.492L134.127 195.218C133.628 195.819 132.998 196.281 132.235 196.604C131.487 196.927 130.673 197.088 129.793 197.088C128.649 197.088 127.63 196.839 126.735 196.34C125.84 195.841 125.136 195.152 124.623 194.272C124.124 193.392 123.875 192.387 123.875 191.258C123.875 190.143 124.11 189.146 124.579 188.266C125.063 187.371 125.723 186.675 126.559 186.176C127.395 185.677 128.334 185.428 129.375 185.428C130.416 185.428 131.348 185.677 132.169 186.176C133.005 186.66 133.658 187.342 134.127 188.222C134.611 189.102 134.853 190.099 134.853 191.214L134.831 191.522ZM129.375 186.396C128.568 186.396 127.842 186.579 127.197 186.946C126.552 187.298 126.031 187.804 125.635 188.464C125.254 189.109 125.034 189.843 124.975 190.664H133.775C133.731 189.843 133.511 189.109 133.115 188.464C132.719 187.819 132.198 187.313 131.553 186.946C130.908 186.579 130.182 186.396 129.375 186.396ZM147.259 185.516L142.067 197H140.945L135.775 185.516H136.941L141.517 195.79L146.137 185.516H147.259Z" fill="#22252C"/>
<defs>
<filter id="filter0_dd" x="22.25" y="47" width="176.25" height="183" filterUnits="userSpaceOnUse" color-interpolation-filters="sRGB">
<feFlood flood-opacity="0" result="BackgroundImageFix"/>
<feColorMatrix in="SourceAlpha" type="matrix" values="0 0 0 0 0 0 0 0 0 0 0 0 0 0 0 0 0 0 127 0"/>
<feOffset dy="4"/>
<feGaussianBlur stdDeviation="2"/>
<feColorMatrix type="matrix" values="0 0 0 0 0 0 0 0 0 0 0 0 0 0 0 0 0 0 0.25 0"/>
<feBlend mode="normal" in2="BackgroundImageFix" result="effect1_dropShadow"/>
<feColorMatrix in="SourceAlpha" type="matrix" values="0 0 0 0 0 0 0 0 0 0 0 0 0 0 0 0 0 0 127 0"/>
<feOffset dy="4"/>
<feGaussianBlur stdDeviation="2"/>
<feColorMatrix type="matrix" values="0 0 0 0 0 0 0 0 0 0 0 0 0 0 0 0 0 0 0.25 0"/>
<feBlend mode="normal" in2="effect1_dropShadow" result="effect2_dropShadow"/>
<feBlend mode="normal" in="SourceGraphic" in2="effect2_dropShadow" result="shape"/>
</filter>
<filter id="filter1_dd" x="51.5" y="101.3" width="315.299" height="84.3" filterUnits="userSpaceOnUse" color-interpolation-filters="sRGB">
<feFlood flood-opacity="0" result="BackgroundImageFix"/>
<feColorMatrix in="SourceAlpha" type="matrix" values="0 0 0 0 0 0 0 0 0 0 0 0 0 0 0 0 0 0 127 0"/>
<feOffset dy="4"/>
<feGaussianBlur stdDeviation="2"/>
<feColorMatrix type="matrix" values="0 0 0 0 0 0 0 0 0 0 0 0 0 0 0 0 0 0 0.25 0"/>
<feBlend mode="normal" in2="BackgroundImageFix" result="effect1_dropShadow"/>
<feColorMatrix in="SourceAlpha" type="matrix" values="0 0 0 0 0 0 0 0 0 0 0 0 0 0 0 0 0 0 127 0"/>
<feOffset dy="4"/>
<feGaussianBlur stdDeviation="2"/>
<feColorMatrix type="matrix" values="0 0 0 0 0 0 0 0 0 0 0 0 0 0 0 0 0 0 0.25 0"/>
<feBlend mode="normal" in2="effect1_dropShadow" result="effect2_dropShadow"/>
<feBlend mode="normal" in="SourceGraphic" in2="effect2_dropShadow" result="shape"/>
</filter>
</defs>
</svg>
