<svg width="512" height="211" viewBox="0 0 512 211" fill="none" xmlns="http://www.w3.org/2000/svg">
<path d="M119.281 63.65L108.402 64.0367L107.695 62.3708L113.616 56.5877L105.327 56.7937L104.62 55.1278L112.463 47.5888L113.163 49.2365L106.896 55.1876L115.576 54.9223L116.199 56.3889L109.92 62.4093L118.62 62.0928L119.281 63.65ZM118.867 75.8306C118.737 75.8856 118.562 75.9459 118.34 76.0117L115.035 68.2255C114.257 68.6837 113.748 69.3345 113.508 70.1769C113.286 71.0266 113.374 71.9221 113.774 72.8637C114.261 74.0105 115.029 74.774 116.08 75.1545L115.392 76.5788C114.714 76.3541 114.106 75.9709 113.571 75.4288C113.041 74.8988 112.606 74.2356 112.268 73.4389C111.837 72.4249 111.656 71.4405 111.723 70.4861C111.802 69.5264 112.113 68.6748 112.659 67.9303C113.21 67.1979 113.944 66.6371 114.862 66.2474C115.768 65.8625 116.673 65.7208 117.577 65.8213C118.486 65.934 119.295 66.2675 120.002 66.8221C120.727 67.3834 121.284 68.1231 121.673 69.0405C122.062 69.9579 122.203 70.8601 122.093 71.7473C122 72.6413 121.674 73.4425 121.113 74.1507C120.557 74.871 119.809 75.4307 118.867 75.8306ZM120.243 69.6475C119.889 68.8146 119.345 68.2194 118.61 67.8618C117.88 67.5164 117.094 67.4651 116.253 67.7084L118.866 73.8649C119.613 73.4337 120.114 72.8294 120.368 72.0521C120.638 71.2822 120.597 70.4805 120.243 69.6475ZM126.871 81.2863C127.266 82.2161 127.419 83.1341 127.332 84.0399C127.244 84.9466 126.928 85.7573 126.384 86.4721C125.846 87.1995 125.106 87.7627 124.164 88.1625C123.222 88.5623 122.298 88.7058 121.388 88.5929C120.496 88.4874 119.693 88.1519 118.981 87.5846C118.268 87.0183 117.714 86.2704 117.32 85.3406C117.018 84.629 116.876 83.9198 116.896 83.2127C116.916 82.5064 117.102 81.8504 117.456 81.2438L115.973 81.8734L115.266 80.2078L128.366 74.6472L129.104 76.3851L123.948 78.5734C124.607 78.7502 125.183 79.0754 125.676 79.5499C126.18 80.0195 126.579 80.5982 126.871 81.2863ZM118.741 84.5663C119.003 85.1819 119.371 85.6741 119.847 86.0417C120.339 86.417 120.892 86.6387 121.504 86.7059C122.133 86.7809 122.771 86.6807 123.419 86.4061C124.066 86.1314 124.575 85.7441 124.947 85.2446C125.335 84.7528 125.559 84.2013 125.62 83.5911C125.686 82.9935 125.588 82.3866 125.327 81.7709C125.071 81.168 124.702 80.6757 124.221 80.2955C123.74 79.9162 123.188 79.6945 122.564 79.6313C121.952 79.5641 121.322 79.6671 120.675 79.9417C120.028 80.2164 119.509 80.6009 119.121 81.0926C118.745 81.5804 118.52 82.1319 118.448 82.7461C118.387 83.3564 118.485 83.9633 118.741 84.5663ZM132.971 87.558L135.239 92.8997C135.807 94.2396 136.054 95.539 135.976 96.7966C135.899 98.055 135.51 99.1675 134.809 100.134C134.125 101.108 133.177 101.853 131.965 102.367C130.753 102.882 129.553 103.049 128.365 102.869C127.195 102.697 126.13 102.201 125.171 101.383C124.212 100.565 123.449 99.4855 122.88 98.1456L120.613 92.8039L132.971 87.558ZM124.37 97.3849C124.806 98.4116 125.382 99.2282 126.098 99.8356C126.819 100.456 127.617 100.83 128.491 100.957C129.376 101.08 130.278 100.946 131.196 100.556C132.114 100.167 132.831 99.6137 133.346 98.896C133.873 98.1743 134.164 97.3381 134.219 96.3883C134.28 95.4512 134.092 94.4697 133.657 93.443L132.204 90.0207L122.917 93.9626L124.37 97.3849ZM135.163 114.221C135.033 114.276 134.857 114.335 134.635 114.402L131.33 106.616C130.553 107.074 130.043 107.724 129.804 108.567C129.581 109.416 129.67 110.312 130.069 111.254C130.556 112.4 131.325 113.164 132.375 113.545L131.688 114.969C131.009 114.744 130.402 114.361 129.866 113.819C129.336 113.289 128.902 112.626 128.563 111.829C128.133 110.815 127.951 109.83 128.018 108.876C128.097 107.916 128.409 107.065 128.955 106.32C129.505 105.588 130.239 105.027 131.157 104.638C132.064 104.253 132.968 104.11 133.873 104.211C134.782 104.323 135.59 104.658 136.298 105.212C137.022 105.773 137.579 106.513 137.969 107.431C138.358 108.348 138.498 109.25 138.388 110.137C138.296 111.031 137.969 111.833 137.408 112.541C136.852 113.261 136.105 113.821 135.163 114.221ZM136.539 108.038C136.185 107.205 135.64 106.609 134.906 106.252C134.175 105.906 133.39 105.855 132.548 106.099L135.162 112.255C135.909 111.824 136.41 111.219 136.663 110.442C136.933 109.672 136.892 108.871 136.539 108.038ZM144.448 122.941L133.308 122.712L132.555 120.937L140.129 112.765L140.897 114.575L134.793 121.056L143.726 121.239L144.448 122.941Z" fill="black"/>
<g filter="url(#filter0_dddd)">
<path d="M163.719 152.6H56.5833L34.4073 203H4.74325L96.0393 1.39999H124.551L216.135 203H185.895L163.719 152.6ZM153.639 129.56L110.151 30.776L66.6633 129.56H153.639Z" fill="#AAFFFF"/>
</g>
<g filter="url(#filter1_ddd)">
<path d="M72.5898 166.39L64.2198 174.31V187H52.9698V120.22H64.2198V160.54L87.5298 138.94H101.03L80.9598 159.1L102.92 187H89.2398L72.5898 166.39ZM137.457 138.4C143.517 138.4 148.377 140.17 152.037 143.71C155.697 147.25 157.527 152.5 157.527 159.46V187H146.277V160.9C146.277 156.7 145.287 153.55 143.307 151.45C141.327 149.29 138.507 148.21 134.847 148.21C130.707 148.21 127.437 149.47 125.037 151.99C122.637 154.45 121.437 158.02 121.437 162.7V187H110.187V120.22H121.437V144.52C123.297 142.54 125.577 141.04 128.277 140.02C131.037 138.94 134.097 138.4 137.457 138.4ZM218.328 138.94V187H207.618V180.88C205.818 183.04 203.568 184.72 200.868 185.92C198.168 187.06 195.258 187.63 192.138 187.63C185.718 187.63 180.648 185.86 176.928 182.32C173.268 178.72 171.438 173.41 171.438 166.39V138.94H182.688V164.86C182.688 169.18 183.648 172.42 185.568 174.58C187.548 176.68 190.338 177.73 193.938 177.73C197.958 177.73 201.138 176.5 203.478 174.04C205.878 171.52 207.078 167.92 207.078 163.24V138.94H218.328ZM260.328 138.4C266.388 138.4 271.248 140.17 274.908 143.71C278.568 147.25 280.398 152.5 280.398 159.46V187H269.148V160.9C269.148 156.7 268.158 153.55 266.178 151.45C264.198 149.29 261.378 148.21 257.718 148.21C253.578 148.21 250.308 149.47 247.908 151.99C245.508 154.45 244.308 158.02 244.308 162.7V187H233.058V138.94H243.768V145.15C245.628 142.93 247.968 141.25 250.788 140.11C253.608 138.97 256.788 138.4 260.328 138.4ZM342.179 120.22V187H331.379V180.79C329.519 183.07 327.209 184.78 324.449 185.92C321.749 187.06 318.749 187.63 315.449 187.63C310.829 187.63 306.659 186.61 302.939 184.57C299.279 182.53 296.399 179.65 294.299 175.93C292.199 172.15 291.149 167.83 291.149 162.97C291.149 158.11 292.199 153.82 294.299 150.1C296.399 146.38 299.279 143.5 302.939 141.46C306.659 139.42 310.829 138.4 315.449 138.4C318.629 138.4 321.539 138.94 324.179 140.02C326.819 141.1 329.069 142.72 330.929 144.88V120.22H342.179ZM316.799 178C319.499 178 321.929 177.4 324.089 176.2C326.249 174.94 327.959 173.17 329.219 170.89C330.479 168.61 331.109 165.97 331.109 162.97C331.109 159.97 330.479 157.33 329.219 155.05C327.959 152.77 326.249 151.03 324.089 149.83C321.929 148.57 319.499 147.94 316.799 147.94C314.099 147.94 311.669 148.57 309.509 149.83C307.349 151.03 305.639 152.77 304.379 155.05C303.119 157.33 302.489 159.97 302.489 162.97C302.489 165.97 303.119 168.61 304.379 170.89C305.639 173.17 307.349 174.94 309.509 176.2C311.669 177.4 314.099 178 316.799 178ZM378.496 187.63C373.636 187.63 369.256 186.58 365.356 184.48C361.456 182.38 358.396 179.47 356.176 175.75C354.016 171.97 352.936 167.71 352.936 162.97C352.936 158.23 354.016 154 356.176 150.28C358.396 146.56 361.456 143.65 365.356 141.55C369.256 139.45 373.636 138.4 378.496 138.4C383.416 138.4 387.826 139.45 391.726 141.55C395.626 143.65 398.656 146.56 400.816 150.28C403.036 154 404.146 158.23 404.146 162.97C404.146 167.71 403.036 171.97 400.816 175.75C398.656 179.47 395.626 182.38 391.726 184.48C387.826 186.58 383.416 187.63 378.496 187.63ZM378.496 178C382.636 178 386.056 176.62 388.756 173.86C391.456 171.1 392.806 167.47 392.806 162.97C392.806 158.47 391.456 154.84 388.756 152.08C386.056 149.32 382.636 147.94 378.496 147.94C374.356 147.94 370.936 149.32 368.236 152.08C365.596 154.84 364.276 158.47 364.276 162.97C364.276 167.47 365.596 171.1 368.236 173.86C370.936 176.62 374.356 178 378.496 178ZM458.585 138.94L437.975 187H426.365L405.755 138.94H417.455L432.395 174.58L447.785 138.94H458.585ZM482.482 138.4C489.562 138.4 494.962 140.11 498.682 143.53C502.462 146.89 504.352 151.99 504.352 158.83V187H493.732V181.15C492.352 183.25 490.372 184.87 487.792 186.01C485.272 187.09 482.212 187.63 478.612 187.63C475.012 187.63 471.862 187.03 469.162 185.83C466.462 184.57 464.362 182.86 462.862 180.7C461.422 178.48 460.702 175.99 460.702 173.23C460.702 168.91 462.292 165.46 465.472 162.88C468.712 160.24 473.782 158.92 480.682 158.92H493.102V158.2C493.102 154.84 492.082 152.26 490.042 150.46C488.062 148.66 485.092 147.76 481.132 147.76C478.432 147.76 475.762 148.18 473.122 149.02C470.542 149.86 468.352 151.03 466.552 152.53L462.142 144.34C464.662 142.42 467.692 140.95 471.232 139.93C474.772 138.91 478.522 138.4 482.482 138.4ZM480.952 179.44C483.772 179.44 486.262 178.81 488.422 177.55C490.642 176.23 492.202 174.37 493.102 171.97V166.39H481.492C475.012 166.39 471.772 168.52 471.772 172.78C471.772 174.82 472.582 176.44 474.202 177.64C475.822 178.84 478.072 179.44 480.952 179.44Z" fill="white"/>
</g>
<defs>
<filter id="filter0_dddd" x="0.743225" y="1.39999" width="219.392" height="209.6" filterUnits="userSpaceOnUse" color-interpolation-filters="sRGB">
<feFlood flood-opacity="0" result="BackgroundImageFix"/>
<feColorMatrix in="SourceAlpha" type="matrix" values="0 0 0 0 0 0 0 0 0 0 0 0 0 0 0 0 0 0 127 0"/>
<feOffset dy="4"/>
<feGaussianBlur stdDeviation="2"/>
<feColorMatrix type="matrix" values="0 0 0 0 0 0 0 0 0 0 0 0 0 0 0 0 0 0 0.25 0"/>
<feBlend mode="normal" in2="BackgroundImageFix" result="effect1_dropShadow"/>
<feColorMatrix in="SourceAlpha" type="matrix" values="0 0 0 0 0 0 0 0 0 0 0 0 0 0 0 0 0 0 127 0"/>
<feOffset dy="4"/>
<feGaussianBlur stdDeviation="2"/>
<feColorMatrix type="matrix" values="0 0 0 0 0 0 0 0 0 0 0 0 0 0 0 0 0 0 0.25 0"/>
<feBlend mode="normal" in2="effect1_dropShadow" result="effect2_dropShadow"/>
<feColorMatrix in="SourceAlpha" type="matrix" values="0 0 0 0 0 0 0 0 0 0 0 0 0 0 0 0 0 0 127 0"/>
<feOffset dy="4"/>
<feGaussianBlur stdDeviation="2"/>
<feColorMatrix type="matrix" values="0 0 0 0 0 0 0 0 0 0 0 0 0 0 0 0 0 0 0.25 0"/>
<feBlend mode="normal" in2="effect2_dropShadow" result="effect3_dropShadow"/>
<feColorMatrix in="SourceAlpha" type="matrix" values="0 0 0 0 0 0 0 0 0 0 0 0 0 0 0 0 0 0 127 0"/>
<feOffset dy="4"/>
<feGaussianBlur stdDeviation="2"/>
<feColorMatrix type="matrix" values="0 0 0 0 0 0 0 0 0 0 0 0 0 0 0 0 0 0 0.25 0"/>
<feBlend mode="normal" in2="effect3_dropShadow" result="effect4_dropShadow"/>
<feBlend mode="normal" in="SourceGraphic" in2="effect4_dropShadow" result="shape"/>
</filter>
<filter id="filter1_ddd" x="48.9698" y="120.22" width="459.382" height="75.41" filterUnits="userSpaceOnUse" color-interpolation-filters="sRGB">
<feFlood flood-opacity="0" result="BackgroundImageFix"/>
<feColorMatrix in="SourceAlpha" type="matrix" values="0 0 0 0 0 0 0 0 0 0 0 0 0 0 0 0 0 0 127 0"/>
<feOffset dy="4"/>
<feGaussianBlur stdDeviation="2"/>
<feColorMatrix type="matrix" values="0 0 0 0 0 0 0 0 0 0 0 0 0 0 0 0 0 0 0.25 0"/>
<feBlend mode="normal" in2="BackgroundImageFix" result="effect1_dropShadow"/>
<feColorMatrix in="SourceAlpha" type="matrix" values="0 0 0 0 0 0 0 0 0 0 0 0 0 0 0 0 0 0 127 0"/>
<feOffset dy="4"/>
<feGaussianBlur stdDeviation="2"/>
<feColorMatrix type="matrix" values="0 0 0 0 0 0 0 0 0 0 0 0 0 0 0 0 0 0 0.25 0"/>
<feBlend mode="normal" in2="effect1_dropShadow" result="effect2_dropShadow"/>
<feColorMatrix in="SourceAlpha" type="matrix" values="0 0 0 0 0 0 0 0 0 0 0 0 0 0 0 0 0 0 127 0"/>
<feOffset dy="4"/>
<feGaussianBlur stdDeviation="2"/>
<feColorMatrix type="matrix" values="0 0 0 0 0 0 0 0 0 0 0 0 0 0 0 0 0 0 0.25 0"/>
<feBlend mode="normal" in2="effect2_dropShadow" result="effect3_dropShadow"/>
<feBlend mode="normal" in="SourceGraphic" in2="effect3_dropShadow" result="shape"/>
</filter>
</defs>
</svg>
